<?xml version="1.0" encoding="UTF-8" standalone="no"?>
<svg
   xmlns:dc="http://purl.org/dc/elements/1.1/"
   xmlns:cc="http://creativecommons.org/ns#"
   xmlns:rdf="http://www.w3.org/1999/02/22-rdf-syntax-ns#"
   xmlns:svg="http://www.w3.org/2000/svg"
   xmlns="http://www.w3.org/2000/svg"
   width="756mm"
   height="423mm"
   viewBox="0 0 756 423"
   version="1.1"
   preserveAspectRatio="xMidYMid meet"
   id="svg9">
  <title
     id="title837">Lightbox Main</title>
  <metadata
     id="metadata15">
    <rdf:RDF>
      <cc:Work
         rdf:about="">
        <dc:format>image/svg+xml</dc:format>
        <dc:type
           rdf:resource="http://purl.org/dc/dcmitype/StillImage" />
        <dc:title>Lightbox Main</dc:title>
      </cc:Work>
    </rdf:RDF>
  </metadata>
  <defs
     id="defs13" />
  <g
     id="svgGroup"
     stroke-linecap="round"
     fill-rule="evenodd"
     font-size="9pt"
     stroke="#000"
     stroke-width="0.25mm"
     fill="none"
     style="stroke:#000;stroke-width:0.25mm;fill:none">
    <path
       d="M 0 278 L 0 292.75 L 3 292.75 L 3 303.25 L 0 303.25 L 0 313.75 L 3 313.75 L 3 324.25 L 0 324.25 L 0 334.75 L 3 334.75 L 3 345.25 L 0 345.25 L 0 355.75 L 3 355.75 L 3 366.25 L 0 366.25 L 0 376.75 L 3 376.75 L 3 387.25 L 0 387.25 L 0 397.75 L 3 397.75 L 3 408.25 L 0 408.25 L 0 418.75 L 0 423 L 14.25 423 L 14.25 420 L 24.75 420 L 24.75 423 L 35.25 423 L 35.25 420 L 45.75 420 L 45.75 423 L 56.25 423 L 56.25 420 L 66.75 420 L 66.75 423 L 77.25 423 L 77.25 420 L 87.75 420 L 87.75 423 L 98.25 423 L 98.25 420 L 108.75 420 L 108.75 423 L 119.25 423 L 119.25 420 L 129.75 420 L 129.75 423 L 140.25 423 L 140.25 420 L 150.75 420 L 150.75 423 L 161.25 423 L 161.25 420 L 171.75 420 L 171.75 423 L 182.25 423 L 182.25 420 L 192.75 420 L 192.75 423 L 203.25 423 L 203.25 420 L 213.75 420 L 213.75 423 L 224.25 423 L 224.25 420 L 234.75 420 L 234.75 423 L 245.25 423 L 245.25 420 L 255.75 420 L 255.75 423 L 270 423 L 270 408.25 L 267 408.25 L 267 397.75 L 270 397.75 L 270 387.25 L 267 387.25 L 267 376.75 L 270 376.75 L 270 366.25 L 267 366.25 L 267 355.75 L 270 355.75 L 270 345.25 L 267 345.25 L 267 334.75 L 270 334.75 L 270 324.25 L 267 324.25 L 267 313.75 L 270 313.75 L 270 303.25 L 267 303.25 L 267 292.75 L 270 292.75 L 270 282.25 L 270 278 L 255.75 278 L 255.75 281 L 245.25 281 L 245.25 278 L 234.75 278 L 234.75 281 L 224.25 281 L 224.25 278 L 213.75 278 L 213.75 281 L 203.25 281 L 203.25 278 L 192.75 278 L 192.75 281 L 182.25 281 L 182.25 278 L 171.75 278 L 171.75 281 L 161.25 281 L 161.25 278 L 150.75 278 L 150.75 281 L 140.25 281 L 140.25 278 L 129.75 278 L 129.75 281 L 119.25 281 L 119.25 278 L 108.75 278 L 108.75 281 L 98.25 281 L 98.25 278 L 87.75 278 L 87.75 281 L 77.25 281 L 77.25 278 L 66.75 278 L 66.75 281 L 56.25 281 L 56.25 278 L 45.75 278 L 45.75 281 L 35.25 281 L 35.25 278 L 24.75 278 L 24.75 281 L 14.25 281 L 14.25 278 L 0 278 Z"
       id="front_outsideCutPath"
       stroke="#FF0000"
       stroke-width="0.1"
       style="stroke:#FF0000;stroke-width:0.1"
       vector-effect="non-scaling-stroke" />
    <path
       d="M 276 278 L 276 292.75 L 273 292.75 L 273 303.25 L 276 303.25 L 276 313.75 L 273 313.75 L 273 324.25 L 276 324.25 L 276 334.75 L 273 334.75 L 273 345.25 L 276 345.25 L 276 355.75 L 273 355.75 L 273 366.25 L 276 366.25 L 276 376.75 L 273 376.75 L 273 387.25 L 276 387.25 L 276 397.75 L 273 397.75 L 273 408.25 L 276 408.25 L 276 418.75 L 276 423 L 288.75 423 L 288.75 420 L 299.25 420 L 299.25 423 L 309.75 423 L 309.75 420 L 320.25 420 L 320.25 423 L 330.75 423 L 330.75 420 L 341.25 420 L 341.25 423 L 351.75 423 L 351.75 420 L 362.25 420 L 362.25 423 L 372.75 423 L 372.75 420 L 383.25 420 L 383.25 423 L 393.75 423 L 393.75 420 L 404.25 420 L 404.25 423 L 414.75 423 L 414.75 420 L 425.25 420 L 425.25 423 L 435.75 423 L 435.75 420 L 446.25 420 L 446.25 423 L 456.75 423 L 456.75 420 L 467.25 420 L 467.25 423 L 477.75 423 L 480 423 L 480 408.25 L 483 408.25 L 483 397.75 L 480 397.75 L 480 387.25 L 483 387.25 L 483 376.75 L 480 376.75 L 480 366.25 L 483 366.25 L 483 355.75 L 480 355.75 L 480 345.25 L 483 345.25 L 483 334.75 L 480 334.75 L 480 324.25 L 483 324.25 L 483 313.75 L 480 313.75 L 480 303.25 L 483 303.25 L 483 292.75 L 480 292.75 L 480 282.25 L 480 278 L 467.25 278 L 467.25 281 L 456.75 281 L 456.75 278 L 446.25 278 L 446.25 281 L 435.75 281 L 435.75 278 L 425.25 278 L 425.25 281 L 414.75 281 L 414.75 278 L 404.25 278 L 404.25 281 L 393.75 281 L 393.75 278 L 383.25 278 L 383.25 281 L 372.75 281 L 372.75 278 L 362.25 278 L 362.25 281 L 351.75 281 L 351.75 278 L 341.25 278 L 341.25 281 L 330.75 281 L 330.75 278 L 320.25 278 L 320.25 281 L 309.75 281 L 309.75 278 L 299.25 278 L 299.25 281 L 288.75 281 L 288.75 278 L 278.25 278 L 276 278 Z"
       id="left_outsideCutPath"
       stroke="#FF0000"
       stroke-width="0.1"
       style="stroke:#FF0000;stroke-width:0.1"
       vector-effect="non-scaling-stroke" />
    <path
       d="m 489,216 v 12.75 h -3 v 10.5 h 3 v 10.5 h -3 v 10.5 h 3 v 10.5 h -3 v 10.5 h 3 v 10.5 h -3 v 10.5 h 3 v 10.5 h -3 v 10.5 h 3 v 10.5 h -3 v 10.5 h 3 v 10.5 h -3 v 10.5 h 3 v 10.5 h -3 v 10.5 h 3 v 10.5 h -3 v 10.5 h 3 v 10.5 2.25 h 11.25 v 3 h 10.5 v -3 h 10.5 v 3 h 10.5 v -3 h 10.5 v 3 h 10.5 v -3 h 10.5 v 3 h 10.5 v -3 h 10.5 v 3 h 10.5 v -3 h 10.5 v 3 h 10.5 v -3 h 10.5 v 3 h 10.5 v -3 h 10.5 v 3 h 10.5 v -3 h 10.5 v 3 h 10.5 v -3 h 10.5 v 3 h 10.5 v -3 h 10.5 v 3 h 10.5 v -3 h 10.5 v 3 h 10.5 v -3 h 5.625 c 5.625,-6.375 0,0 5.625,-6.375 v -6.375 h 3 v -10.5 h -3 v -10.5 h 3 v -10.5 h -3 v -10.5 h 3 v -10.5 h -3 v -10.5 h 3 v -10.5 h -3 v -10.5 h 3 v -10.5 h -3 v -10.5 h 3 v -10.5 h -3 v -10.5 h 3 v -10.5 h -3 v -10.5 h 3 v -10.5 h -3 v -10.5 h 3 v -10.5 h -3 V 218.25 216 h -11.25 v -3 h -10.5 v 3 h -10.5 v -3 h -10.5 v 3 h -10.5 v -3 h -10.5 v 3 h -10.5 v -3 h -10.5 v 3 h -10.5 v -3 h -10.5 v 3 h -10.5 v -3 h -10.5 v 3 h -10.5 v -3 h -10.5 v 3 h -10.5 v -3 h -10.5 v 3 h -10.5 v -3 h -10.5 v 3 h -10.5 v -3 h -10.5 v 3 h -10.5 v -3 h -10.5 v 3 h -10.5 v -3 h -10.5 v 3 z"
       id="top_outsideCutPath"
       stroke="#FF0000"
       stroke-width="0.1"
       style="stroke:#ff0000;stroke-width:0.1"
       vector-effect="non-scaling-stroke" />
    <path
       d="M 0 130 L 0 144.75 L 3 144.75 L 3 155.25 L 0 155.25 L 0 165.75 L 3 165.75 L 3 176.25 L 0 176.25 L 0 186.75 L 3 186.75 L 3 197.25 L 0 197.25 L 0 207.75 L 3 207.75 L 3 218.25 L 0 218.25 L 0 228.75 L 3 228.75 L 3 239.25 L 0 239.25 L 0 249.75 L 3 249.75 L 3 260.25 L 0 260.25 L 0 270.75 L 0 275 L 14.25 275 L 14.25 272 L 24.75 272 L 24.75 275 L 35.25 275 L 35.25 272 L 45.75 272 L 45.75 275 L 56.25 275 L 56.25 272 L 66.75 272 L 66.75 275 L 77.25 275 L 77.25 272 L 87.75 272 L 87.75 275 L 98.25 275 L 98.25 272 L 108.75 272 L 108.75 275 L 119.25 275 L 119.25 272 L 129.75 272 L 129.75 275 L 140.25 275 L 140.25 272 L 150.75 272 L 150.75 275 L 161.25 275 L 161.25 272 L 171.75 272 L 171.75 275 L 182.25 275 L 182.25 272 L 192.75 272 L 192.75 275 L 203.25 275 L 203.25 272 L 213.75 272 L 213.75 275 L 224.25 275 L 224.25 272 L 234.75 272 L 234.75 275 L 245.25 275 L 245.25 272 L 255.75 272 L 255.75 275 L 270 275 L 270 260.25 L 267 260.25 L 267 249.75 L 270 249.75 L 270 239.25 L 267 239.25 L 267 228.75 L 270 228.75 L 270 218.25 L 267 218.25 L 267 207.75 L 270 207.75 L 270 197.25 L 267 197.25 L 267 186.75 L 270 186.75 L 270 176.25 L 267 176.25 L 267 165.75 L 270 165.75 L 270 155.25 L 267 155.25 L 267 144.75 L 270 144.75 L 270 134.25 L 270 130 L 255.75 130 L 255.75 133 L 245.25 133 L 245.25 130 L 234.75 130 L 234.75 133 L 224.25 133 L 224.25 130 L 213.75 130 L 213.75 133 L 203.25 133 L 203.25 130 L 192.75 130 L 192.75 133 L 182.25 133 L 182.25 130 L 171.75 130 L 171.75 133 L 161.25 133 L 161.25 130 L 150.75 130 L 150.75 133 L 140.25 133 L 140.25 130 L 129.75 130 L 129.75 133 L 119.25 133 L 119.25 130 L 108.75 130 L 108.75 133 L 98.25 133 L 98.25 130 L 87.75 130 L 87.75 133 L 77.25 133 L 77.25 130 L 66.75 130 L 66.75 133 L 56.25 133 L 56.25 130 L 45.75 130 L 45.75 133 L 35.25 133 L 35.25 130 L 24.75 130 L 24.75 133 L 14.25 133 L 14.25 130 L 0 130 Z"
       id="back_outsideCutPath"
       stroke="#FF0000"
       stroke-width="0.1"
       style="stroke:#FF0000;stroke-width:0.1"
       vector-effect="non-scaling-stroke" />
    <path
       d="M 276 130 L 276 144.75 L 273 144.75 L 273 155.25 L 276 155.25 L 276 165.75 L 273 165.75 L 273 176.25 L 276 176.25 L 276 186.75 L 273 186.75 L 273 197.25 L 276 197.25 L 276 207.75 L 273 207.75 L 273 218.25 L 276 218.25 L 276 228.75 L 273 228.75 L 273 239.25 L 276 239.25 L 276 249.75 L 273 249.75 L 273 260.25 L 276 260.25 L 276 270.75 L 276 275 L 288.75 275 L 288.75 272 L 299.25 272 L 299.25 275 L 309.75 275 L 309.75 272 L 320.25 272 L 320.25 275 L 330.75 275 L 330.75 272 L 341.25 272 L 341.25 275 L 351.75 275 L 351.75 272 L 362.25 272 L 362.25 275 L 372.75 275 L 372.75 272 L 383.25 272 L 383.25 275 L 393.75 275 L 393.75 272 L 404.25 272 L 404.25 275 L 414.75 275 L 414.75 272 L 425.25 272 L 425.25 275 L 435.75 275 L 435.75 272 L 446.25 272 L 446.25 275 L 456.75 275 L 456.75 272 L 467.25 272 L 467.25 275 L 477.75 275 L 480 275 L 480 260.25 L 483 260.25 L 483 249.75 L 480 249.75 L 480 239.25 L 483 239.25 L 483 228.75 L 480 228.75 L 480 218.25 L 483 218.25 L 483 207.75 L 480 207.75 L 480 197.25 L 483 197.25 L 483 186.75 L 480 186.75 L 480 176.25 L 483 176.25 L 483 165.75 L 480 165.75 L 480 155.25 L 483 155.25 L 483 144.75 L 480 144.75 L 480 134.25 L 480 130 L 467.25 130 L 467.25 133 L 456.75 133 L 456.75 130 L 446.25 130 L 446.25 133 L 435.75 133 L 435.75 130 L 425.25 130 L 425.25 133 L 414.75 133 L 414.75 130 L 404.25 130 L 404.25 133 L 393.75 133 L 393.75 130 L 383.25 130 L 383.25 133 L 372.75 133 L 372.75 130 L 362.25 130 L 362.25 133 L 351.75 133 L 351.75 130 L 341.25 130 L 341.25 133 L 330.75 133 L 330.75 130 L 320.25 130 L 320.25 133 L 309.75 133 L 309.75 130 L 299.25 130 L 299.25 133 L 288.75 133 L 288.75 130 L 278.25 130 L 276 130 Z"
       id="right_outsideCutPath"
       stroke="#FF0000"
       stroke-width="0.1"
       style="stroke:#FF0000;stroke-width:0.1"
       vector-effect="non-scaling-stroke" />
    <path
       d="M 489 3 L 489 15.75 L 486 15.75 L 486 26.25 L 489 26.25 L 489 36.75 L 486 36.75 L 486 47.25 L 489 47.25 L 489 57.75 L 486 57.75 L 486 68.25 L 489 68.25 L 489 78.75 L 486 78.75 L 486 89.25 L 489 89.25 L 489 99.75 L 486 99.75 L 486 110.25 L 489 110.25 L 489 120.75 L 486 120.75 L 486 131.25 L 489 131.25 L 489 141.75 L 486 141.75 L 486 152.25 L 489 152.25 L 489 162.75 L 486 162.75 L 486 173.25 L 489 173.25 L 489 183.75 L 486 183.75 L 486 194.25 L 489 194.25 L 489 204.75 L 489 207 L 500.25 207 L 500.25 210 L 510.75 210 L 510.75 207 L 521.25 207 L 521.25 210 L 531.75 210 L 531.75 207 L 542.25 207 L 542.25 210 L 552.75 210 L 552.75 207 L 563.25 207 L 563.25 210 L 573.75 210 L 573.75 207 L 584.25 207 L 584.25 210 L 594.75 210 L 594.75 207 L 605.25 207 L 605.25 210 L 615.75 210 L 615.75 207 L 626.25 207 L 626.25 210 L 636.75 210 L 636.75 207 L 647.25 207 L 647.25 210 L 657.75 210 L 657.75 207 L 668.25 207 L 668.25 210 L 678.75 210 L 678.75 207 L 689.25 207 L 689.25 210 L 699.75 210 L 699.75 207 L 710.25 207 L 710.25 210 L 720.75 210 L 720.75 207 L 731.25 207 L 731.25 210 L 741.75 210 L 741.75 207 L 753 207 L 753 194.25 L 756 194.25 L 756 183.75 L 753 183.75 L 753 173.25 L 756 173.25 L 756 162.75 L 753 162.75 L 753 152.25 L 756 152.25 L 756 141.75 L 753 141.75 L 753 131.25 L 756 131.25 L 756 120.75 L 753 120.75 L 753 110.25 L 756 110.25 L 756 99.75 L 753 99.75 L 753 89.25 L 756 89.25 L 756 78.75 L 753 78.75 L 753 68.25 L 756 68.25 L 756 57.75 L 753 57.75 L 753 47.25 L 756 47.25 L 756 36.75 L 753 36.75 L 753 26.25 L 756 26.25 L 756 15.75 L 753 15.75 L 753 5.25 L 753 3 L 741.75 3 L 741.75 0 L 731.25 0 L 731.25 3 L 720.75 3 L 720.75 0 L 710.25 0 L 710.25 3 L 699.75 3 L 699.75 0 L 689.25 0 L 689.25 3 L 678.75 3 L 678.75 0 L 668.25 0 L 668.25 3 L 657.75 3 L 657.75 0 L 647.25 0 L 647.25 3 L 636.75 3 L 636.75 0 L 626.25 0 L 626.25 3 L 615.75 3 L 615.75 0 L 605.25 0 L 605.25 3 L 594.75 3 L 594.75 0 L 584.25 0 L 584.25 3 L 573.75 3 L 573.75 0 L 563.25 0 L 563.25 3 L 552.75 3 L 552.75 0 L 542.25 0 L 542.25 3 L 531.75 3 L 531.75 0 L 521.25 0 L 521.25 3 L 510.75 3 L 510.75 0 L 500.25 0 L 500.25 3 L 489 3 Z"
       id="bottom_outsideCutPath"
       stroke="#FF0000"
       stroke-width="0.1"
       style="stroke:#FF0000;stroke-width:0.1"
       vector-effect="non-scaling-stroke" />
  </g>
  <path
     style="fill:none;stroke:#0000ff;stroke-width:0.131045"
     id="path23"
     d="m 626.68447,318.00003 a 5.6844659,5.684433 0 0 1 -5.62839,5.68416 5.6844659,5.684433 0 0 1 -5.73944,-5.57201 5.6844659,5.684433 0 0 1 5.51514,-5.79409 5.6844659,5.684433 0 0 1 5.84826,5.45768" />
</svg>
