<?xml version="1.0" encoding="UTF-8" standalone="no"?>
<svg width="297.011mm" height="209.973mm"
 viewBox="0 0 3508 2480"
 xmlns="http://www.w3.org/2000/svg" xmlns:xlink="http://www.w3.org/1999/xlink"  version="1.2" baseProfile="tiny">
<defs>
</defs>
<g fill="none" stroke="black" stroke-width="1" fill-rule="evenodd" stroke-linecap="square" stroke-linejoin="bevel" >

<g fill="#ffffff" fill-opacity="1" stroke="none" transform="matrix(1,0,0,1,0,0)"
font-family="Arial" font-size="12" font-weight="400" font-style="normal" 
>
<rect x="0" y="0" width="3508" height="2480"/>
</g>

<g fill="none" stroke="#000000" stroke-opacity="1" stroke-width="1" stroke-linecap="square" stroke-linejoin="bevel" transform="matrix(1,0,0,1,0,0)"
font-family="Arial" font-size="12" font-weight="400" font-style="normal" 
>
</g>

<g fill="#000000" fill-opacity="1" stroke="#000000" stroke-opacity="1" stroke-width="1" stroke-linecap="butt" stroke-linejoin="miter" stroke-miterlimit="2" transform="matrix(1,0,0,1,0,0)"
font-family="Arial" font-size="12" font-weight="400" font-style="normal" 
>
</g>

<g fill="#000000" fill-opacity="1" stroke="#000000" stroke-opacity="1" stroke-width="5" stroke-linecap="round" stroke-linejoin="bevel" transform="matrix(1,0,0,1,0,0)"
font-family="Arial" font-size="12" font-weight="400" font-style="normal" 
>
<polyline fill="none" vector-effect="none" points="1194.4,981.187 1194.24,978.775 1193.75,976.408 1192.94,974.13 1191.82,971.983 1190.43,970.008 1188.78,968.241 1186.9,966.715 1184.84,965.459 1182.62,964.496 1180.29,963.843 1177.9,963.514 1175.48,963.514 1173.08,963.843 1170.76,964.496 1168.54,965.459 1166.47,966.715 1164.6,968.241 1162.95,970.008 1161.55,971.983 1160.44,974.13 1159.63,976.408 1159.14,978.775 1158.97,981.187 1159.14,983.599 1159.63,985.966 1160.44,988.244 1161.55,990.391 1162.95,992.366 1164.6,994.133 1166.47,995.659 1168.54,996.915 1170.76,997.879 1173.08,998.531 1175.48,998.86 1177.9,998.86 1180.29,998.531 1182.62,997.879 1184.84,996.915 1186.9,995.659 1188.78,994.133 1190.43,992.366 1191.82,990.391 1192.94,988.244 1193.75,985.966 1194.24,983.599 1194.4,981.187 " />
<polyline fill="none" vector-effect="none" points="1194.4,125.351 1194.24,122.939 1193.75,120.572 1192.94,118.294 1191.82,116.147 1190.43,114.172 1188.78,112.405 1186.9,110.879 1184.84,109.623 1182.62,108.659 1180.29,108.007 1177.9,107.678 1175.48,107.678 1173.08,108.007 1170.76,108.659 1168.54,109.623 1166.47,110.879 1164.6,112.405 1162.95,114.172 1161.55,116.147 1160.44,118.294 1159.63,120.572 1159.14,122.939 1158.97,125.351 1159.14,127.763 1159.63,130.13 1160.44,132.408 1161.55,134.555 1162.95,136.53 1164.6,138.297 1166.47,139.823 1168.54,141.079 1170.76,142.042 1173.08,142.695 1175.48,143.024 1177.9,143.024 1180.29,142.695 1182.62,142.042 1184.84,141.079 1186.9,139.823 1188.78,138.297 1190.43,136.53 1191.82,134.555 1192.94,132.408 1193.75,130.13 1194.24,127.763 1194.4,125.351 " />
<polyline fill="none" vector-effect="none" points="1099.93,48.589 1099.93,1057.95 " />
<polyline fill="none" vector-effect="none" points="1675.48,48.589 1663,53.228 1650.63,58.1784 1638.39,63.4371 1626.29,69.0009 1614.33,74.8661 1602.53,81.0292 1590.88,87.4863 1579.39,94.2332 1568.08,101.266 1556.95,108.58 1546.01,116.17 1535.26,124.033 1524.71,132.162 1514.36,140.553 1504.23,149.201 1494.32,158.1 1484.64,167.245 1475.19,176.629 1465.98,186.247 1457.01,196.093 1448.29,206.161 1439.82,216.444 1431.62,226.936 1423.68,237.631 1416.01,248.52 1408.62,259.599 1401.5,270.86 1394.67,282.295 1388.13,293.898 1381.89,305.661 1375.94,317.577 1370.29,329.638 1364.94,341.837 1359.9,354.166 1355.18,366.618 1350.76,379.184 1346.66,391.857 1342.88,404.628 1339.43,417.491 1336.29,430.436 1333.48,443.455 1331,456.541 1328.85,469.684 1327.02,482.878 1325.53,496.113 1324.37,509.382 1323.54,522.675 1323.05,535.985 1322.89,549.303 1323.06,562.621 1323.57,575.93 1324.41,589.222 1325.59,602.49 1327.09,615.723 1328.93,628.915 1331.1,642.056 1333.59,655.139 1336.42,668.156 1339.56,681.097 1343.04,693.956 1346.83,706.724 1350.94,719.392 1355.37,731.954 1360.11,744.4 1365.16,756.724 1370.52,768.917 1376.18,780.973 1382.15,792.882 1388.4,804.639 1394.96,816.235 1401.8,827.663 1408.92,838.916 1416.33,849.986 1424.01,860.868 1431.96,871.554 1440.17,882.038 1448.65,892.312 1457.38,902.37 1466.36,912.207 1475.58,921.815 1485.04,931.19 1494.74,940.324 1504.66,949.212 1514.8,957.85 1525.15,966.23 1535.71,974.348 1546.47,982.199 1557.42,989.778 1568.56,997.08 1579.88,1004.1 1591.37,1010.84 1603.02,1017.28 1614.84,1023.43 1626.8,1029.28 1638.91,1034.83 1651.15,1040.08 1663.52,1045.02 1676.01,1049.64 1688.61,1053.95 1701.32,1057.95 " />
<polyline fill="none" vector-effect="none" points="1112.26,816.252 1112.26,831.967 " />
<polyline fill="none" vector-effect="none" points="1208.2,831.967 1208.2,816.252 " />
<polyline fill="none" vector-effect="none" points="1208.2,816.252 1112.26,816.252 " />
<polyline fill="none" vector-effect="none" points="1240.02,422.49 1240.02,386.056 " />
<polyline fill="none" vector-effect="none" points="1240.02,386.056 1239.99,382.899 1239.9,379.855 1239.75,376.922 1239.55,374.101 1239.28,371.392 1238.95,368.794 1238.56,366.308 1238.11,363.934 1237.6,361.672 1237.04,359.521 1236.41,357.482 1235.72,355.555 1234.97,353.74 1234.17,352.036 1233.3,350.444 1232.38,348.964 " />
<polyline fill="none" vector-effect="none" points="1232.38,348.964 1231.39,347.584 1230.33,346.293 1229.2,345.092 1228.01,343.979 1226.75,342.955 1225.42,342.02 1224.02,341.175 1222.56,340.418 1221.02,339.75 1219.42,339.172 1217.76,338.682 1216.02,338.282 1214.22,337.97 1212.34,337.747 1210.41,337.614 1208.4,337.569 " />
<polyline fill="none" vector-effect="none" points="1189.64,343.763 1187.87,345.4 1186.27,347.216 1184.83,349.208 1183.55,351.379 1182.44,353.728 1181.49,356.254 1180.7,358.958 1180.07,361.841 " />
<polyline fill="none" vector-effect="none" points="1180.07,361.841 1179.21,361.841 " />
<polyline fill="none" vector-effect="none" points="1179.21,361.841 1178.49,358.272 1177.61,354.947 1176.57,351.867 1175.37,349.03 1174.02,346.438 1172.49,344.091 1170.81,341.987 1168.97,340.128 " />
<polyline fill="none" vector-effect="none" points="1168.97,340.128 1166.97,338.499 1164.82,337.088 1162.5,335.894 1160.04,334.917 1157.42,334.157 1154.64,333.614 1151.7,333.288 1148.62,333.179 " />
<polyline fill="none" vector-effect="none" points="1148.62,333.179 1146.51,333.225 1144.45,333.362 1142.46,333.591 1140.53,333.912 1138.65,334.324 1136.83,334.827 1135.08,335.422 1133.38,336.108 1131.73,336.886 1130.15,337.756 1128.63,338.717 1127.16,339.77 1125.75,340.914 1124.41,342.15 1123.11,343.477 1121.88,344.896 " />
<polyline fill="none" vector-effect="none" points="1121.88,344.896 1120.72,346.396 1119.63,347.969 1118.61,349.614 1117.67,351.332 1116.81,353.122 1116.02,354.984 1115.31,356.919 1114.67,358.925 1114.11,361.005 1113.62,363.156 1113.2,365.38 1112.87,367.676 1112.6,370.044 1112.41,372.485 1112.3,374.998 1112.26,377.583 " />
<polyline fill="none" vector-effect="none" points="1112.26,377.583 1112.26,422.49 " />
<polyline fill="none" vector-effect="none" points="1112.26,422.49 1240.02,422.49 " />
<polyline fill="none" vector-effect="none" points="1234.15,833.197 1235.42,833.156 1236.6,833.031 1237.69,832.822 1238.68,832.53 1239.59,832.154 1240.41,831.695 1241.13,831.153 1241.77,830.527 " />
<polyline fill="none" vector-effect="none" points="1244.13,823.942 1243.99,822.156 1243.54,820.489 1242.8,818.94 1241.77,817.511 " />
<polyline fill="none" vector-effect="none" points="1241.77,817.511 1241.13,816.868 1240.41,816.312 1239.59,815.841 1238.68,815.455 1237.69,815.156 1236.6,814.942 1235.42,814.813 1234.15,814.77 " />
<polyline fill="none" vector-effect="none" points="1234.15,814.77 1232.91,814.813 1231.75,814.942 1230.67,815.156 1229.68,815.455 1228.77,815.841 1227.95,816.312 1227.21,816.868 1226.56,817.511 " />
<polyline fill="none" vector-effect="none" points="1226.56,817.511 1225.49,818.94 1224.72,820.489 1224.27,822.156 1224.11,823.942 " />
<polyline fill="none" vector-effect="none" points="1224.11,823.942 1224.15,824.901 1224.27,825.822 1224.46,826.703 1224.72,827.546 1225.07,828.349 1225.49,829.114 1225.99,829.84 1226.56,830.527 " />
<polyline fill="none" vector-effect="none" points="1226.56,830.527 1227.21,831.153 1227.95,831.695 1228.77,832.154 1229.68,832.53 1230.67,832.822 1231.75,833.031 1232.91,833.156 1234.15,833.197 " />
<polyline fill="none" vector-effect="none" points="1209.96,518.428 1209.9,515.333 1209.7,512.423 1209.37,509.699 1208.9,507.16 " />
<polyline fill="none" vector-effect="none" points="1208.9,507.16 1194.42,509.089 " />
<polyline fill="none" vector-effect="none" points="1194.42,509.089 1194.94,511.731 1195.32,514.346 1195.54,516.932 1195.62,519.491 " />
<polyline fill="none" vector-effect="none" points="1191.42,533.598 1190.33,535.179 1189.13,536.672 1187.83,538.076 1186.43,539.393 1184.94,540.621 1183.34,541.761 1181.64,542.812 1179.85,543.776 " />
<polyline fill="none" vector-effect="none" points="1179.85,543.776 1177.98,544.638 1176.06,545.385 1174.08,546.017 1172.06,546.534 1169.99,546.936 1167.86,547.223 1165.69,547.395 1163.46,547.453 " />
<polyline fill="none" vector-effect="none" points="1163.46,547.453 1112.26,547.453 " />
<polyline fill="none" vector-effect="none" points="1112.26,547.453 1112.26,563.168 " />
<polyline fill="none" vector-effect="none" points="1112.26,563.168 1208.2,563.168 " />
<polyline fill="none" vector-effect="none" points="1208.2,563.168 1208.2,550.249 " />
<polyline fill="none" vector-effect="none" points="1208.2,550.249 1190.64,548.487 " />
</g>

<g fill="#000000" fill-opacity="1" stroke="none" transform="matrix(1,0,0,1,0,0)"
font-family="Arial" font-size="12" font-weight="400" font-style="normal" 
>
<circle cx="1190.64" cy="548.487" r="2.5"/>
</g>

<g fill="#000000" fill-opacity="1" stroke="#000000" stroke-opacity="1" stroke-width="5" stroke-linecap="round" stroke-linejoin="bevel" transform="matrix(1,0,0,1,0,0)"
font-family="Arial" font-size="12" font-weight="400" font-style="normal" 
>
<polyline fill="none" vector-effect="none" points="1190.64,547.788 1192.95,546.38 1195.12,544.909 1197.14,543.376 1199.02,541.78 1200.75,540.122 1202.33,538.401 1203.77,536.618 1205.07,534.772 " />
<polyline fill="none" vector-effect="none" points="1205.07,534.772 1206.22,532.874 1207.21,530.935 1208.05,528.954 1208.74,526.932 1209.28,524.868 1209.66,522.763 1209.89,520.616 1209.96,518.428 " />
<polyline fill="none" vector-effect="none" points="1123.37,457.163 1123.4,455.573 1123.52,453.85 1123.71,451.994 1123.98,450.005 " />
<polyline fill="none" vector-effect="none" points="1123.98,450.005 1124.3,448.076 1124.64,446.398 1125,444.972 1125.38,443.797 " />
<polyline fill="none" vector-effect="none" points="1125.38,443.797 1113.33,443.797 " />
<polyline fill="none" vector-effect="none" points="1111.43,450.564 1111.02,452.866 1110.73,455.185 1110.56,457.522 1110.5,459.876 " />
<polyline fill="none" vector-effect="none" points="1110.5,459.876 1110.62,463.282 1110.97,466.469 1111.54,469.435 1112.36,472.182 1113.4,474.71 1114.67,477.017 1116.18,479.105 1117.91,480.973 1119.88,482.621 1122.08,484.05 1124.51,485.258 1127.18,486.247 1130.07,487.017 1133.2,487.566 1136.55,487.896 1140.14,488.005 " />
<polyline fill="none" vector-effect="none" points="1140.14,488.005 1195.98,488.005 " />
<polyline fill="none" vector-effect="none" points="1195.98,488.005 1195.98,501.567 " />
<polyline fill="none" vector-effect="none" points="1195.98,501.567 1203.5,501.567 " />
<polyline fill="none" vector-effect="none" points="1203.5,501.567 1209.8,487.838 " />
<polyline fill="none" vector-effect="none" points="1209.8,487.838 1230.24,481.546 " />
<polyline fill="none" vector-effect="none" points="1230.24,481.546 1230.24,472.207 " />
<polyline fill="none" vector-effect="none" points="1230.24,472.207 1208.2,472.207 " />
<polyline fill="none" vector-effect="none" points="1208.2,472.207 1208.2,444.496 " />
<polyline fill="none" vector-effect="none" points="1208.2,444.496 1195.98,444.496 " />
<polyline fill="none" vector-effect="none" points="1195.98,444.496 1195.98,472.207 " />
<polyline fill="none" vector-effect="none" points="1195.98,472.207 1140.59,472.207 " />
<polyline fill="none" vector-effect="none" points="1140.59,472.207 1138.57,472.145 1136.68,471.958 1134.9,471.647 1133.25,471.211 1131.71,470.65 1130.3,469.966 1129,469.156 1127.83,468.222 " />
<polyline fill="none" vector-effect="none" points="1127.83,468.222 1126.78,467.178 1125.87,466.037 1125.11,464.799 1124.48,463.465 1123.99,462.035 1123.64,460.507 1123.43,458.884 1123.37,457.163 " />
<polyline fill="none" vector-effect="none" points="1123.37,168.035 1123.4,166.445 1123.52,164.722 1123.71,162.866 1123.98,160.877 " />
<polyline fill="none" vector-effect="none" points="1123.98,160.877 1124.3,158.948 1124.64,157.27 1125,155.844 1125.38,154.669 " />
<polyline fill="none" vector-effect="none" points="1125.38,154.669 1113.33,154.669 " />
<polyline fill="none" vector-effect="none" points="1111.43,161.436 1111.02,163.738 1110.73,166.057 1110.56,168.394 1110.5,170.748 " />
<polyline fill="none" vector-effect="none" points="1110.5,170.748 1110.62,174.154 1110.97,177.341 1111.54,180.307 1112.36,183.054 1113.4,185.582 1114.67,187.889 1116.18,189.977 1117.91,191.845 1119.88,193.493 1122.08,194.922 1124.51,196.13 1127.18,197.119 1130.07,197.889 1133.2,198.438 1136.55,198.768 1140.14,198.878 " />
<polyline fill="none" vector-effect="none" points="1195.98,198.878 1195.98,212.439 " />
<polyline fill="none" vector-effect="none" points="1203.5,212.439 1209.8,198.71 " />
<polyline fill="none" vector-effect="none" points="1209.8,198.71 1230.24,192.418 " />
<polyline fill="none" vector-effect="none" points="1230.24,192.418 1230.24,183.079 " />
<polyline fill="none" vector-effect="none" points="1230.24,183.079 1208.2,183.079 " />
<polyline fill="none" vector-effect="none" points="1208.2,183.079 1208.2,155.369 " />
<polyline fill="none" vector-effect="none" points="1208.2,155.369 1195.98,155.369 " />
<polyline fill="none" vector-effect="none" points="1195.98,155.369 1195.98,183.079 " />
<polyline fill="none" vector-effect="none" points="1195.98,183.079 1140.59,183.079 " />
<polyline fill="none" vector-effect="none" points="1140.59,183.079 1138.57,183.017 1136.68,182.83 1134.9,182.519 1133.25,182.083 1131.71,181.522 1130.3,180.838 1129,180.028 1127.83,179.094 " />
<polyline fill="none" vector-effect="none" points="1127.83,179.094 1126.78,178.05 1125.87,176.909 1125.11,175.671 1124.48,174.337 1123.99,172.907 1123.64,171.379 1123.43,169.756 1123.37,168.035 " />
<polyline fill="none" vector-effect="none" points="1240.02,946.08 1240.02,909.646 " />
<polyline fill="none" vector-effect="none" points="1240.02,909.646 1239.99,906.49 1239.9,903.445 1239.75,900.512 1239.55,897.691 1239.28,894.982 1238.95,892.384 1238.56,889.898 1238.11,887.524 1237.6,885.262 1237.04,883.111 1236.41,881.072 1235.72,879.145 1234.97,877.33 1234.17,875.626 1233.3,874.034 1232.38,872.554 " />
<polyline fill="none" vector-effect="none" points="1232.38,872.554 1231.39,871.174 1230.33,869.883 1229.2,868.682 1228.01,867.569 1226.75,866.545 1225.42,865.611 1224.02,864.765 1222.56,864.008 1221.02,863.341 1219.42,862.762 1217.76,862.272 1216.02,861.872 1214.22,861.56 1212.34,861.338 1210.41,861.204 1208.4,861.16 " />
<polyline fill="none" vector-effect="none" points="1189.64,867.353 1187.87,868.99 1186.27,870.806 1184.83,872.799 1183.55,874.969 1182.44,877.318 1181.49,879.844 1180.7,882.549 1180.07,885.431 " />
<polyline fill="none" vector-effect="none" points="1180.07,885.431 1179.21,885.431 " />
<polyline fill="none" vector-effect="none" points="1179.21,885.431 1178.49,881.862 1177.61,878.537 1176.57,875.457 1175.37,872.62 1174.02,870.029 1172.49,867.681 1170.81,865.577 1168.97,863.718 " />
<polyline fill="none" vector-effect="none" points="1168.97,863.718 1166.97,862.089 1164.82,860.678 1162.5,859.484 1160.04,858.507 1157.42,857.747 1154.64,857.204 1151.7,856.878 1148.62,856.769 " />
<polyline fill="none" vector-effect="none" points="1148.62,856.769 1146.51,856.815 1144.45,856.953 1142.46,857.181 1140.53,857.502 1138.65,857.914 1136.83,858.417 1135.08,859.012 1133.38,859.699 1131.73,860.477 1130.15,861.346 1128.63,862.307 1127.16,863.36 1125.75,864.504 1124.41,865.74 1123.11,867.067 1121.88,868.486 " />
<polyline fill="none" vector-effect="none" points="1121.88,868.486 1120.72,869.986 1119.63,871.559 1118.61,873.205 1117.67,874.922 1116.81,876.712 1116.02,878.574 1115.31,880.509 1114.67,882.516 1114.11,884.595 1113.62,886.746 1113.2,888.97 1112.87,891.266 1112.6,893.634 1112.41,896.075 1112.3,898.588 1112.26,901.173 " />
<polyline fill="none" vector-effect="none" points="1112.26,901.173 1112.26,946.08 " />
<polyline fill="none" vector-effect="none" points="1112.26,946.08 1240.02,946.08 " />
<polyline fill="none" vector-effect="none" points="1160.42,225.022 1157.52,225.068 1154.7,225.208 1151.96,225.44 1149.3,225.765 1146.73,226.183 1144.23,226.693 1141.81,227.297 1139.48,227.993 1137.22,228.782 1135.05,229.664 1132.96,230.639 1130.94,231.707 1129.01,232.867 1127.16,234.121 1125.39,235.467 1123.7,236.906 " />
<polyline fill="none" vector-effect="none" points="1110.5,269.761 1110.6,272.972 1110.88,276.09 1111.36,279.113 1112.02,282.044 1112.88,284.881 1113.92,287.624 1115.16,290.274 1116.58,292.83 " />
<polyline fill="none" vector-effect="none" points="1116.58,292.83 1118.19,295.268 1119.95,297.561 1121.89,299.71 1123.98,301.715 1126.25,303.576 1128.67,305.292 1131.26,306.865 1134.02,308.293 " />
<polyline fill="none" vector-effect="none" points="1134.02,308.293 1136.91,309.565 1139.93,310.666 1143.05,311.599 1146.29,312.362 1149.65,312.955 1153.12,313.379 1156.71,313.633 1160.42,313.718 " />
<polyline fill="none" vector-effect="none" points="1160.42,313.718 1163.3,313.672 1166.1,313.535 1168.83,313.306 1171.47,312.986 1174.03,312.574 1176.52,312.07 1178.92,311.475 1181.24,310.789 1183.48,310.011 1185.63,309.141 1187.71,308.18 1189.71,307.127 1191.63,305.983 1193.46,304.748 1195.22,303.42 1196.89,302.002 " />
<polyline fill="none" vector-effect="none" points="1196.89,302.002 1198.47,300.5 1199.96,298.925 1201.33,297.277 1202.61,295.555 1203.79,293.759 1204.86,291.889 1205.83,289.946 1206.7,287.93 1207.46,285.839 1208.13,283.676 1208.69,281.438 1209.15,279.127 1209.5,276.742 1209.76,274.284 1209.91,271.752 1209.96,269.146 " />
<polyline fill="none" vector-effect="none" points="1209.96,269.146 1209.91,266.645 1209.76,264.209 1209.5,261.837 1209.13,259.532 1208.66,257.291 1208.09,255.116 1207.41,253.005 1206.63,250.96 1205.75,248.981 1204.76,247.066 1203.67,245.217 1202.47,243.432 1201.17,241.714 1199.76,240.06 1198.25,238.471 1196.64,236.948 " />
<polyline fill="none" vector-effect="none" points="1196.64,236.948 1194.94,235.504 1193.16,234.153 1191.31,232.895 1189.38,231.73 1187.38,230.659 1185.3,229.681 1183.15,228.795 1180.92,228.004 1178.62,227.305 1176.24,226.699 1173.79,226.187 1171.27,225.767 1168.67,225.441 1165.99,225.208 1163.24,225.069 1160.42,225.022 " />
<polyline fill="none" vector-effect="none" points="1112.26,595.24 1151.86,610.619 " />
<polyline fill="none" vector-effect="none" points="1151.86,610.619 1151.86,661.314 " />
<polyline fill="none" vector-effect="none" points="1112.26,676.526 1112.26,692.772 " />
<polyline fill="none" vector-effect="none" points="1112.26,692.772 1240.55,642.887 " />
<polyline fill="none" vector-effect="none" points="1240.55,642.887 1240.55,628.375 " />
<polyline fill="none" vector-effect="none" points="1240.55,628.375 1112.26,578.575 " />
<polyline fill="none" vector-effect="none" points="1112.26,578.575 1112.26,595.24 " />
<polyline fill="none" vector-effect="none" points="1160.42,702.475 1157.52,702.521 1154.7,702.66 1151.96,702.892 1149.3,703.217 1146.73,703.635 1144.23,704.146 1141.81,704.749 1139.48,705.446 1137.22,706.235 1135.05,707.117 1132.96,708.092 1130.94,709.159 1129.01,710.32 1127.16,711.573 1125.39,712.92 1123.7,714.359 " />
<polyline fill="none" vector-effect="none" points="1123.7,714.359 1122.1,715.88 1120.61,717.472 1119.22,719.135 1117.93,720.868 1116.74,722.673 1115.66,724.549 1114.68,726.496 1113.8,728.514 1113.03,730.603 1112.36,732.763 1111.79,734.994 1111.33,737.296 1110.97,739.669 1110.71,742.113 1110.55,744.628 1110.5,747.214 " />
<polyline fill="none" vector-effect="none" points="1116.58,770.283 1118.19,772.72 1119.95,775.014 1121.89,777.163 1123.98,779.168 1126.25,781.028 1128.67,782.745 1131.26,784.318 1134.02,785.746 " />
<polyline fill="none" vector-effect="none" points="1134.02,785.746 1136.91,787.017 1139.93,788.119 1143.05,789.051 1146.29,789.814 1149.65,790.408 1153.12,790.831 1156.71,791.086 1160.42,791.17 " />
<polyline fill="none" vector-effect="none" points="1160.42,791.17 1163.3,791.125 1166.1,790.987 1168.83,790.759 1171.47,790.438 1174.03,790.026 1176.52,789.523 1178.92,788.928 1181.24,788.241 1183.48,787.463 1185.63,786.594 1187.71,785.633 1189.71,784.58 1191.63,783.436 1193.46,782.2 1195.22,780.873 1196.89,779.454 " />
<polyline fill="none" vector-effect="none" points="1196.89,779.454 1198.47,777.953 1199.96,776.378 1201.33,774.729 1202.61,773.007 1203.79,771.212 1204.86,769.342 1205.83,767.399 1206.7,765.382 1207.46,763.292 1208.13,761.128 1208.69,758.891 1209.15,756.58 1209.5,754.195 1209.76,751.736 1209.91,749.204 1209.96,746.599 " />
<polyline fill="none" vector-effect="none" points="1209.96,746.599 1209.91,744.097 1209.76,741.661 1209.5,739.29 1209.13,736.984 1208.66,734.744 1208.09,732.568 1207.41,730.458 1206.63,728.413 1205.75,726.433 1204.76,724.519 1203.67,722.669 1202.47,720.885 1201.17,719.166 1199.76,717.512 1198.25,715.924 1196.64,714.401 " />
<polyline fill="none" vector-effect="none" points="1196.64,714.401 1194.94,712.956 1193.16,711.605 1191.31,710.348 1189.38,709.183 1187.38,708.112 1185.3,707.133 1183.15,706.248 1180.92,705.456 1178.62,704.757 1176.24,704.152 1173.79,703.639 1171.27,703.22 1168.67,702.894 1165.99,702.661 1163.24,702.521 1160.42,702.475 " />
<polyline fill="none" vector-effect="none" points="1099.93,1057.95 1701.32,1057.95 " />
<polyline fill="none" vector-effect="none" points="1195.98,212.439 1203.5,212.439 " />
<polyline fill="none" vector-effect="none" points="1140.14,198.878 1195.98,198.878 " />
<polyline fill="none" vector-effect="none" points="1110.5,747.214 1110.6,750.425 1110.88,753.542 1111.36,756.566 1112.02,759.496 1112.88,762.333 1113.92,765.077 1115.16,767.726 1116.58,770.283 " />
<polyline fill="none" vector-effect="none" points="1151.86,661.314 1112.26,676.526 " />
<polyline fill="none" vector-effect="none" points="1123.7,236.906 1122.1,238.427 1120.61,240.019 1119.22,241.682 1117.93,243.416 1116.74,245.221 1115.66,247.097 1114.68,249.044 1113.8,251.062 1113.03,253.151 1112.36,255.311 1111.79,257.542 1111.33,259.844 1110.97,262.217 1110.71,264.661 1110.55,267.175 1110.5,269.761 " />
<polyline fill="none" vector-effect="none" points="1208.4,861.16 1205.62,861.256 1202.96,861.547 1200.42,862.031 1198.02,862.708 1195.73,863.579 1193.58,864.643 1191.54,865.902 1189.64,867.353 " />
<polyline fill="none" vector-effect="none" points="1113.33,154.669 1112.84,155.91 1112.36,157.452 1111.89,159.294 1111.43,161.436 " />
<polyline fill="none" vector-effect="none" points="1113.33,443.797 1112.84,445.038 1112.36,446.58 1111.89,448.422 1111.43,450.564 " />
<polyline fill="none" vector-effect="none" points="1195.62,519.491 1195.55,521.375 1195.36,523.225 1195.03,525.04 1194.57,526.82 1193.98,528.566 1193.26,530.278 1192.41,531.955 1191.42,533.598 " />
<polyline fill="none" vector-effect="none" points="1241.77,830.527 1242.8,829.114 1243.54,827.546 1243.99,825.822 1244.13,823.942 " />
<polyline fill="none" vector-effect="none" points="1208.4,337.569 1205.62,337.666 1202.96,337.957 1200.42,338.44 1198.02,339.118 1195.73,339.989 1193.58,341.053 1191.54,342.311 1189.64,343.763 " />
<polyline fill="none" vector-effect="none" points="1112.26,831.967 1208.2,831.967 " />
<polyline fill="none" vector-effect="none" points="1099.93,48.589 1675.48,48.589 " />
<polyline fill="none" vector-effect="none" points="1172.22,930.002 1125.91,930.002 " />
<polyline fill="none" vector-effect="none" points="1125.91,930.002 1125.91,904.221 " />
<polyline fill="none" vector-effect="none" points="1125.91,904.221 1126,900.501 1126.28,897.029 1126.75,893.805 1127.4,890.831 1128.23,888.105 1129.25,885.627 1130.46,883.398 1131.85,881.418 " />
<polyline fill="none" vector-effect="none" points="1131.85,881.418 1133.43,879.678 1135.2,878.17 1137.17,876.894 1139.32,875.85 1141.67,875.038 1144.2,874.458 1146.93,874.11 1149.85,873.994 " />
<polyline fill="none" vector-effect="none" points="1149.85,873.994 1152.61,874.117 1155.19,874.485 1157.58,875.099 1159.79,875.958 1161.81,877.063 1163.64,878.414 1165.29,880.01 1166.75,881.851 " />
<polyline fill="none" vector-effect="none" points="1166.75,881.851 1168.03,883.939 1169.14,886.273 1170.08,888.853 1170.85,891.68 1171.45,894.753 1171.87,898.073 1172.13,901.639 1172.22,905.451 " />
<polyline fill="none" vector-effect="none" points="1172.22,905.451 1172.22,930.002 " />
<polyline fill="none" vector-effect="none" points="1226.29,385.273 1226.29,406.412 " />
<polyline fill="none" vector-effect="none" points="1221.67,361.631 1222.75,363.636 1223.69,365.913 1224.49,368.462 1225.14,371.281 1225.64,374.372 1226,377.734 1226.22,381.368 1226.29,385.273 " />
<polyline fill="none" vector-effect="none" points="1206.55,354.151 1209.08,354.268 1211.43,354.618 1213.59,355.203 1215.57,356.021 1217.37,357.073 1218.99,358.358 1220.42,359.878 1221.67,361.631 " />
<polyline fill="none" vector-effect="none" points="1190.47,360.974 1191.78,359.375 1193.28,357.989 1194.99,356.816 1196.9,355.857 1199.01,355.11 1201.32,354.577 1203.84,354.258 1206.55,354.151 " />
<polyline fill="none" vector-effect="none" points="1185.66,382.812 1185.74,379.186 1185.97,375.816 1186.34,372.703 1186.87,369.845 1187.54,367.243 1188.37,364.897 1189.35,362.807 1190.47,360.974 " />
<polyline fill="none" vector-effect="none" points="1185.66,406.412 1185.66,382.812 " />
<polyline fill="none" vector-effect="none" points="1226.29,406.412 1185.66,406.412 " />
<polyline fill="none" vector-effect="none" points="1166.75,358.261 1168.03,360.349 1169.14,362.683 1170.08,365.263 1170.85,368.09 1171.45,371.163 1171.87,374.483 1172.13,378.049 1172.22,381.861 " />
<polyline fill="none" vector-effect="none" points="1149.85,350.404 1152.61,350.527 1155.19,350.895 1157.58,351.509 1159.79,352.368 1161.81,353.473 1163.64,354.824 1165.29,356.42 1166.75,358.261 " />
<polyline fill="none" vector-effect="none" points="1131.85,357.828 1133.43,356.088 1135.2,354.58 1137.17,353.304 1139.32,352.26 1141.67,351.448 1144.2,350.868 1146.93,350.52 1149.85,350.404 " />
<polyline fill="none" vector-effect="none" points="1125.91,380.631 1126,376.911 1126.28,373.439 1126.75,370.215 1127.4,367.241 1128.23,364.515 1129.25,362.037 1130.46,359.808 1131.85,357.828 " />
<polyline fill="none" vector-effect="none" points="1125.91,406.412 1125.91,380.631 " />
<polyline fill="none" vector-effect="none" points="1172.22,406.412 1125.91,406.412 " />
<polyline fill="none" vector-effect="none" points="1172.22,381.861 1172.22,406.412 " />
<polyline fill="none" vector-effect="none" points="1160.42,774.924 1158.19,774.897 1156.03,774.813 1153.94,774.674 1151.91,774.479 1149.96,774.228 1148.07,773.922 1146.25,773.56 1144.5,773.142 1142.81,772.668 1141.2,772.139 1139.65,771.554 1138.17,770.914 1136.76,770.217 1135.41,769.465 1134.14,768.658 1132.93,767.794 " />
<polyline fill="none" vector-effect="none" points="1132.93,767.794 1131.79,766.876 1130.73,765.906 1129.74,764.882 1128.82,763.806 1127.97,762.677 1127.2,761.495 1126.51,760.26 1125.88,758.972 1125.33,757.631 1124.85,756.238 1124.45,754.792 1124.12,753.292 1123.86,751.74 1123.68,750.135 1123.57,748.477 1123.53,746.767 " />
<polyline fill="none" vector-effect="none" points="1123.53,746.767 1123.57,745.079 1123.68,743.443 1123.86,741.858 1124.12,740.324 1124.45,738.841 1124.85,737.409 1125.33,736.028 1125.88,734.697 1126.51,733.418 1127.2,732.19 1127.97,731.013 1128.82,729.887 1129.74,728.812 1130.73,727.788 1131.79,726.815 1132.93,725.893 " />
<polyline fill="none" vector-effect="none" points="1160.42,718.721 1162.64,718.749 1164.8,718.833 1166.88,718.974 1168.9,719.172 1170.85,719.425 1172.72,719.735 1174.53,720.102 1176.27,720.524 1177.93,721.003 1179.53,721.539 1181.05,722.131 1182.51,722.779 1183.9,723.483 1185.21,724.244 1186.46,725.061 1187.64,725.935 " />
<polyline fill="none" vector-effect="none" points="1187.64,725.935 1188.74,726.863 1189.78,727.843 1190.74,728.875 1191.63,729.96 1192.45,731.096 1193.2,732.285 1193.88,733.526 1194.48,734.82 1195.02,736.165 1195.48,737.563 1195.87,739.013 1196.2,740.515 1196.44,742.07 1196.62,743.676 1196.73,745.335 1196.77,747.046 " />
<polyline fill="none" vector-effect="none" points="1196.77,747.046 1196.73,748.761 1196.62,750.422 1196.45,752.028 1196.2,753.58 1195.88,755.078 1195.49,756.52 1195.03,757.909 1194.49,759.243 1193.89,760.523 1193.22,761.748 1192.47,762.918 1191.65,764.035 1190.77,765.096 1189.81,766.104 1188.78,767.056 1187.68,767.955 1186.51,768.799 1185.26,769.588 1183.95,770.323 1182.57,771.004 1181.11,771.63 1179.58,772.202 1177.99,772.719 1176.32,773.182 1174.58,773.59 1172.77,773.944 1170.89,774.244 1168.93,774.489 1166.91,774.679 1164.82,774.816 1162.65,774.897 1160.42,774.924 " />
<polyline fill="none" vector-effect="none" points="1132.93,725.893 1134.14,725.024 1135.41,724.212 1136.76,723.455 1138.17,722.755 1139.65,722.111 1141.2,721.522 1142.81,720.99 1144.5,720.514 1146.25,720.093 1148.07,719.729 1149.96,719.421 1151.91,719.169 1153.94,718.973 1156.03,718.833 1158.19,718.749 1160.42,718.721 " />
<polyline fill="none" vector-effect="none" points="1160.42,297.472 1158.19,297.444 1156.03,297.36 1153.94,297.221 1151.91,297.026 1149.96,296.776 1148.07,296.469 1146.25,296.107 1144.5,295.689 1142.81,295.216 1141.2,294.687 1139.65,294.102 1138.17,293.461 1136.76,292.765 1135.41,292.013 1134.14,291.205 1132.93,290.341 " />
<polyline fill="none" vector-effect="none" points="1123.53,269.314 1123.57,267.627 1123.68,265.991 1123.86,264.406 1124.12,262.871 1124.45,261.388 1124.85,259.956 1125.33,258.575 1125.88,257.245 1126.51,255.966 1127.2,254.738 1127.97,253.561 1128.82,252.435 1129.74,251.359 1130.73,250.335 1131.79,249.362 1132.93,248.44 " />
<polyline fill="none" vector-effect="none" points="1132.93,248.44 1134.14,247.572 1135.41,246.759 1136.76,246.003 1138.17,245.302 1139.65,244.658 1141.2,244.07 1142.81,243.537 1144.5,243.061 1146.25,242.641 1148.07,242.277 1149.96,241.968 1151.91,241.716 1153.94,241.52 1156.03,241.38 1158.19,241.296 1160.42,241.268 " />
<polyline fill="none" vector-effect="none" points="1160.42,241.268 1162.64,241.296 1164.8,241.381 1166.88,241.522 1168.9,241.719 1170.85,241.973 1172.72,242.283 1174.53,242.649 1176.27,243.072 1177.93,243.551 1179.53,244.086 1181.05,244.678 1182.51,245.326 1183.9,246.031 1185.21,246.791 1186.46,247.609 1187.64,248.482 " />
<polyline fill="none" vector-effect="none" points="1187.64,248.482 1188.74,249.41 1189.78,250.39 1190.74,251.423 1191.63,252.507 1192.45,253.644 1193.2,254.833 1193.88,256.074 1194.48,257.367 1195.02,258.713 1195.48,260.111 1195.87,261.561 1196.2,263.063 1196.44,264.617 1196.62,266.224 1196.73,267.883 1196.77,269.594 " />
<polyline fill="none" vector-effect="none" points="1196.77,269.594 1196.73,271.309 1196.62,272.969 1196.45,274.576 1196.2,276.128 1195.88,277.625 1195.49,279.068 1195.03,280.456 1194.49,281.79 1193.89,283.07 1193.22,284.295 1192.47,285.466 1191.65,286.582 1190.77,287.644 1189.81,288.651 1188.78,289.604 1187.68,290.502 1186.51,291.346 1185.26,292.136 1183.95,292.871 1182.57,293.551 1181.11,294.178 1179.58,294.749 1177.99,295.267 1176.32,295.729 1174.58,296.138 1172.77,296.492 1170.89,296.791 1168.93,297.036 1166.91,297.227 1164.82,297.363 1162.65,297.445 1160.42,297.472 " />
<polyline fill="none" vector-effect="none" points="1132.93,290.341 1131.79,289.424 1130.73,288.453 1129.74,287.43 1128.82,286.353 1127.97,285.224 1127.2,284.042 1126.51,282.807 1125.88,281.519 1125.33,280.179 1124.85,278.785 1124.45,277.339 1124.12,275.84 1123.86,274.288 1123.68,272.683 1123.57,271.025 1123.53,269.314 " />
<polyline fill="none" vector-effect="none" points="1226.29,908.863 1226.29,930.002 " />
<polyline fill="none" vector-effect="none" points="1221.67,885.221 1222.75,887.227 1223.69,889.503 1224.49,892.052 1225.14,894.871 1225.64,897.962 1226,901.324 1226.22,904.958 1226.29,908.863 " />
<polyline fill="none" vector-effect="none" points="1190.47,884.564 1191.78,882.965 1193.28,881.579 1194.99,880.406 1196.9,879.447 1199.01,878.7 1201.32,878.167 1203.84,877.848 1206.55,877.741 " />
<polyline fill="none" vector-effect="none" points="1185.66,906.402 1185.74,902.776 1185.97,899.406 1186.34,896.293 1186.87,893.435 1187.54,890.833 1188.37,888.487 1189.35,886.397 1190.47,884.564 " />
<polyline fill="none" vector-effect="none" points="1185.66,930.002 1185.66,906.402 " />
<polyline fill="none" vector-effect="none" points="1226.29,930.002 1185.66,930.002 " />
<polyline fill="none" vector-effect="none" points="1206.55,877.741 1209.08,877.858 1211.43,878.209 1213.59,878.793 1215.57,879.611 1217.37,880.663 1218.99,881.948 1220.42,883.468 1221.67,885.221 " />
<polyline fill="none" vector-effect="none" points="1166.09,615.429 1204.79,629.773 " />
<polyline fill="none" vector-effect="none" points="1204.79,641.378 1166.09,655.89 " />
<polyline fill="none" vector-effect="none" points="1223.94,635.897 1218.82,637.215 1213.91,638.567 1209.24,639.955 1204.79,641.378 " />
<polyline fill="none" vector-effect="none" points="1204.79,629.773 1223.94,635.897 " />
<polyline fill="none" vector-effect="none" points="1166.09,655.89 1166.09,615.429 " />
<polyline fill="none" vector-effect="none" points="1357.8,1535.05 1370.5,1531.06 1383.11,1526.75 1395.6,1522.12 1407.97,1517.19 1420.21,1511.94 1432.31,1506.39 1444.28,1500.54 1456.09,1494.39 1467.75,1487.94 1479.24,1481.21 1490.56,1474.18 1501.7,1466.88 1512.65,1459.3 1523.41,1451.45 1533.97,1443.33 1544.32,1434.95 1554.46,1426.32 1564.38,1417.43 1574.07,1408.29 1583.53,1398.92 1592.76,1389.31 1601.74,1379.48 1610.47,1369.42 1618.94,1359.14 1627.16,1348.66 1635.11,1337.97 1642.79,1327.09 1650.19,1316.02 1657.32,1304.77 1664.16,1293.34 1670.71,1281.74 1676.97,1269.99 1682.93,1258.08 1688.6,1246.02 1693.95,1233.83 1699.01,1221.5 1703.75,1209.06 1708.17,1196.5 1712.29,1183.83 1716.08,1171.06 1719.55,1158.2 1722.7,1145.26 1725.52,1132.24 1728.02,1119.16 1730.18,1106.02 1732.02,1092.83 1733.53,1079.59 1734.7,1066.33 1735.54,1053.03 1736.05,1039.73 1736.22,1026.41 1736.06,1013.09 1735.57,999.78 1734.74,986.486 1733.58,973.218 1732.09,959.983 1730.27,946.789 1728.12,933.645 1725.63,920.56 1722.82,907.54 1719.69,894.595 1716.23,881.733 1712.45,868.962 1708.35,856.289 1703.94,843.722 1699.21,831.271 1694.17,818.942 1688.83,806.743 1683.18,794.681 1677.23,782.765 1670.98,771.002 1664.44,759.4 1657.61,747.964 1650.5,736.704 1643.11,725.625 1635.44,714.735 1627.5,704.041 1619.29,693.549 1610.83,683.266 1602.11,673.198 1593.14,663.352 1583.93,653.734 1574.47,644.349 1564.79,635.205 1554.88,626.306 1544.75,617.658 1534.41,609.267 1523.86,601.137 1513.11,593.275 1502.16,585.685 1491.03,578.371 1479.72,571.338 1468.24,564.591 1456.59,558.134 1444.78,551.971 1432.82,546.106 1420.72,540.542 1408.48,535.283 1396.12,530.333 1383.63,525.694 " />
<polyline fill="none" vector-effect="none" points="1946.85,767.39 1946.85,751.676 " />
<polyline fill="none" vector-effect="none" points="1946.85,751.676 1850.91,751.676 " />
<polyline fill="none" vector-effect="none" points="1850.91,751.676 1850.91,767.39 " />
<polyline fill="none" vector-effect="none" points="1850.91,767.39 1946.85,767.39 " />
<polyline fill="none" vector-effect="none" points="1819.09,1161.15 1819.09,1197.59 " />
<polyline fill="none" vector-effect="none" points="1819.09,1197.59 1819.12,1200.74 1819.21,1203.79 1819.36,1206.72 1819.57,1209.54 1819.84,1212.25 1820.17,1214.85 1820.56,1217.33 1821,1219.71 1821.51,1221.97 1822.08,1224.12 1822.71,1226.16 1823.39,1228.09 1824.14,1229.9 1824.95,1231.61 1825.81,1233.2 1826.74,1234.68 " />
<polyline fill="none" vector-effect="none" points="1826.74,1234.68 1827.73,1236.06 1828.79,1237.35 1829.91,1238.55 1831.11,1239.66 1832.37,1240.69 1833.7,1241.62 1835.09,1242.47 1836.56,1243.22 1838.09,1243.89 1839.69,1244.47 1841.36,1244.96 1843.09,1245.36 1844.9,1245.67 1846.77,1245.9 1848.71,1246.03 1850.72,1246.07 " />
<polyline fill="none" vector-effect="none" points="1850.72,1246.07 1853.5,1245.98 1856.16,1245.69 1858.69,1245.2 1861.1,1244.52 1863.38,1243.65 1865.54,1242.59 1867.57,1241.33 1869.48,1239.88 " />
<polyline fill="none" vector-effect="none" points="1869.48,1239.88 1871.24,1238.24 1872.85,1236.43 1874.28,1234.43 1875.56,1232.26 1876.68,1229.91 1877.63,1227.39 1878.42,1224.68 1879.04,1221.8 " />
<polyline fill="none" vector-effect="none" points="1879.04,1221.8 1879.91,1221.8 " />
<polyline fill="none" vector-effect="none" points="1879.91,1221.8 1880.63,1225.37 1881.5,1228.7 1882.54,1231.78 1883.74,1234.61 1885.1,1237.2 1886.62,1239.55 1888.3,1241.66 1890.14,1243.51 " />
<polyline fill="none" vector-effect="none" points="1890.14,1243.51 1892.14,1245.14 1894.3,1246.55 1896.61,1247.75 1899.08,1248.73 1901.7,1249.49 1904.48,1250.03 1907.41,1250.35 1910.5,1250.46 " />
<polyline fill="none" vector-effect="none" points="1910.5,1250.46 1912.61,1250.42 1914.66,1250.28 1916.65,1250.05 1918.59,1249.73 1920.46,1249.32 1922.28,1248.82 1924.04,1248.22 1925.74,1247.53 1927.38,1246.76 1928.96,1245.89 1930.49,1244.93 1931.95,1243.87 1933.36,1242.73 1934.71,1241.49 1936,1240.17 1937.23,1238.75 " />
<polyline fill="none" vector-effect="none" points="1937.23,1238.75 1938.4,1237.25 1939.49,1235.67 1940.5,1234.03 1941.44,1232.31 1942.3,1230.52 1943.09,1228.66 1943.81,1226.72 1944.45,1224.72 1945.01,1222.64 1945.5,1220.49 1945.91,1218.26 1946.25,1215.97 1946.51,1213.6 1946.7,1211.16 1946.81,1208.64 1946.85,1206.06 " />
<polyline fill="none" vector-effect="none" points="1946.85,1206.06 1946.85,1161.15 " />
<polyline fill="none" vector-effect="none" points="1946.85,1161.15 1819.09,1161.15 " />
<polyline fill="none" vector-effect="none" points="1824.96,750.445 1823.7,750.487 1822.52,750.612 1821.43,750.821 1820.43,751.113 1819.52,751.488 1818.71,751.947 1817.98,752.49 1817.34,753.116 " />
<polyline fill="none" vector-effect="none" points="1817.34,753.116 1816.31,754.529 1815.57,756.097 1815.13,757.821 1814.98,759.701 " />
<polyline fill="none" vector-effect="none" points="1814.98,759.701 1815.13,761.487 1815.57,763.154 1816.31,764.702 1817.34,766.132 " />
<polyline fill="none" vector-effect="none" points="1817.34,766.132 1817.98,766.774 1818.71,767.331 1819.52,767.802 1820.43,768.187 1821.43,768.487 1822.52,768.701 1823.7,768.83 1824.96,768.872 " />
<polyline fill="none" vector-effect="none" points="1824.96,768.872 1826.21,768.83 1827.37,768.701 1828.44,768.487 1829.43,768.187 1830.34,767.802 1831.16,767.331 1831.9,766.774 1832.56,766.132 " />
<polyline fill="none" vector-effect="none" points="1832.56,766.132 1833.63,764.702 1834.39,763.154 1834.85,761.487 1835,759.701 " />
<polyline fill="none" vector-effect="none" points="1835,759.701 1834.96,758.742 1834.85,757.821 1834.66,756.94 1834.39,756.097 1834.05,755.293 1833.63,754.529 1833.13,753.803 1832.56,753.116 " />
<polyline fill="none" vector-effect="none" points="1832.56,753.116 1831.9,752.49 1831.16,751.947 1830.34,751.488 1829.43,751.113 1828.44,750.821 1827.37,750.612 1826.21,750.487 1824.96,750.445 " />
<polyline fill="none" vector-effect="none" points="1849.15,1065.21 1849.22,1068.31 1849.42,1071.22 1849.75,1073.94 1850.21,1076.48 " />
<polyline fill="none" vector-effect="none" points="1850.21,1076.48 1864.7,1074.55 " />
<polyline fill="none" vector-effect="none" points="1864.7,1074.55 1864.17,1071.91 1863.8,1069.3 1863.57,1066.71 1863.5,1064.15 " />
<polyline fill="none" vector-effect="none" points="1863.5,1064.15 1863.56,1062.27 1863.76,1060.42 1864.09,1058.6 1864.54,1056.82 1865.13,1055.08 1865.86,1053.36 1866.71,1051.69 1867.69,1050.05 " />
<polyline fill="none" vector-effect="none" points="1867.69,1050.05 1868.79,1048.46 1869.99,1046.97 1871.28,1045.57 1872.68,1044.25 1874.18,1043.02 1875.77,1041.88 1877.47,1040.83 1879.27,1039.87 " />
<polyline fill="none" vector-effect="none" points="1879.27,1039.87 1881.14,1039.01 1883.06,1038.26 1885.03,1037.63 1887.05,1037.11 1889.13,1036.71 1891.25,1036.42 1893.43,1036.25 1895.65,1036.19 " />
<polyline fill="none" vector-effect="none" points="1895.65,1036.19 1946.85,1036.19 " />
<polyline fill="none" vector-effect="none" points="1946.85,1036.19 1946.85,1020.48 " />
<polyline fill="none" vector-effect="none" points="1946.85,1020.48 1850.91,1020.48 " />
<polyline fill="none" vector-effect="none" points="1850.91,1020.48 1850.91,1033.39 " />
<polyline fill="none" vector-effect="none" points="1850.91,1033.39 1868.47,1035.16 " />
<polyline fill="none" vector-effect="none" points="1868.47,1035.16 1868.47,1035.85 " />
<polyline fill="none" vector-effect="none" points="1868.47,1035.85 1866.16,1037.26 1864,1038.73 1861.97,1040.27 1860.1,1041.86 1858.37,1043.52 1856.78,1045.24 1855.34,1047.02 1854.04,1048.87 " />
<polyline fill="none" vector-effect="none" points="1854.04,1048.87 1852.9,1050.77 1851.9,1052.71 1851.06,1054.69 1850.37,1056.71 1849.84,1058.77 1849.46,1060.88 1849.23,1063.03 1849.15,1065.21 " />
<polyline fill="none" vector-effect="none" points="1935.75,1126.48 1935.71,1128.07 1935.6,1129.79 1935.4,1131.65 1935.13,1133.64 " />
<polyline fill="none" vector-effect="none" points="1935.13,1133.64 1934.82,1135.57 1934.48,1137.24 1934.12,1138.67 1933.74,1139.85 " />
<polyline fill="none" vector-effect="none" points="1933.74,1139.85 1945.79,1139.85 " />
<polyline fill="none" vector-effect="none" points="1945.79,1139.85 1946.27,1138.6 1946.75,1137.06 1947.22,1135.22 1947.69,1133.08 " />
<polyline fill="none" vector-effect="none" points="1947.69,1133.08 1948.09,1130.78 1948.38,1128.46 1948.55,1126.12 1948.61,1123.77 " />
<polyline fill="none" vector-effect="none" points="1948.61,1123.77 1948.5,1120.36 1948.15,1117.17 1947.57,1114.21 1946.76,1111.46 1945.72,1108.93 1944.44,1106.63 1942.94,1104.54 1941.2,1102.67 1939.23,1101.02 1937.03,1099.59 1934.6,1098.38 1931.94,1097.4 1929.05,1096.63 1925.92,1096.08 1922.56,1095.75 1918.97,1095.64 " />
<polyline fill="none" vector-effect="none" points="1918.97,1095.64 1863.13,1095.64 " />
<polyline fill="none" vector-effect="none" points="1863.13,1095.64 1863.13,1082.08 " />
<polyline fill="none" vector-effect="none" points="1863.13,1082.08 1855.61,1082.08 " />
<polyline fill="none" vector-effect="none" points="1855.61,1082.08 1849.32,1095.81 " />
<polyline fill="none" vector-effect="none" points="1849.32,1095.81 1828.88,1102.1 " />
<polyline fill="none" vector-effect="none" points="1828.88,1102.1 1828.88,1111.44 " />
<polyline fill="none" vector-effect="none" points="1828.88,1111.44 1850.91,1111.44 " />
<polyline fill="none" vector-effect="none" points="1850.91,1111.44 1850.91,1139.15 " />
<polyline fill="none" vector-effect="none" points="1850.91,1139.15 1863.13,1139.15 " />
<polyline fill="none" vector-effect="none" points="1863.13,1139.15 1863.13,1111.44 " />
<polyline fill="none" vector-effect="none" points="1863.13,1111.44 1918.53,1111.44 " />
<polyline fill="none" vector-effect="none" points="1918.53,1111.44 1920.54,1111.5 1922.44,1111.68 1924.21,1112 1925.87,1112.43 1927.4,1112.99 1928.82,1113.68 1930.11,1114.49 1931.29,1115.42 " />
<polyline fill="none" vector-effect="none" points="1931.29,1115.42 1932.34,1116.46 1933.24,1117.61 1934.01,1118.84 1934.63,1120.18 1935.12,1121.61 1935.47,1123.14 1935.68,1124.76 1935.75,1126.48 " />
<polyline fill="none" vector-effect="none" points="1935.75,1415.61 1935.71,1417.2 1935.6,1418.92 1935.4,1420.78 1935.13,1422.77 " />
<polyline fill="none" vector-effect="none" points="1935.13,1422.77 1934.82,1424.7 1934.48,1426.37 1934.12,1427.8 1933.74,1428.97 " />
<polyline fill="none" vector-effect="none" points="1933.74,1428.97 1945.79,1428.97 " />
<polyline fill="none" vector-effect="none" points="1945.79,1428.97 1946.27,1427.73 1946.75,1426.19 1947.22,1424.35 1947.69,1422.21 " />
<polyline fill="none" vector-effect="none" points="1947.69,1422.21 1948.09,1419.9 1948.38,1417.59 1948.55,1415.25 1948.61,1412.9 " />
<polyline fill="none" vector-effect="none" points="1948.61,1412.9 1948.5,1409.49 1948.15,1406.3 1947.57,1403.34 1946.76,1400.59 1945.72,1398.06 1944.44,1395.75 1942.94,1393.67 1941.2,1391.8 1939.23,1390.15 1937.03,1388.72 1934.6,1387.51 1931.94,1386.52 1929.05,1385.75 1925.92,1385.2 1922.56,1384.88 1918.97,1384.77 " />
<polyline fill="none" vector-effect="none" points="1918.97,1384.77 1863.13,1384.77 " />
<polyline fill="none" vector-effect="none" points="1863.13,1384.77 1863.13,1371.2 " />
<polyline fill="none" vector-effect="none" points="1863.13,1371.2 1855.61,1371.2 " />
<polyline fill="none" vector-effect="none" points="1855.61,1371.2 1849.32,1384.93 " />
<polyline fill="none" vector-effect="none" points="1849.32,1384.93 1828.88,1391.22 " />
<polyline fill="none" vector-effect="none" points="1828.88,1391.22 1828.88,1400.56 " />
<polyline fill="none" vector-effect="none" points="1828.88,1400.56 1850.91,1400.56 " />
<polyline fill="none" vector-effect="none" points="1850.91,1400.56 1850.91,1428.27 " />
<polyline fill="none" vector-effect="none" points="1850.91,1428.27 1863.13,1428.27 " />
<polyline fill="none" vector-effect="none" points="1863.13,1428.27 1863.13,1400.56 " />
<polyline fill="none" vector-effect="none" points="1863.13,1400.56 1918.53,1400.56 " />
<polyline fill="none" vector-effect="none" points="1918.53,1400.56 1920.54,1400.63 1922.44,1400.81 1924.21,1401.12 1925.87,1401.56 1927.4,1402.12 1928.82,1402.81 1930.11,1403.61 1931.29,1404.55 " />
<polyline fill="none" vector-effect="none" points="1931.29,1404.55 1932.34,1405.59 1933.24,1406.73 1934.01,1407.97 1934.63,1409.31 1935.12,1410.74 1935.47,1412.26 1935.68,1413.89 1935.75,1415.61 " />
<polyline fill="none" vector-effect="none" points="1819.09,637.562 1819.09,673.997 " />
<polyline fill="none" vector-effect="none" points="1819.09,673.997 1819.12,677.153 1819.21,680.198 1819.36,683.131 1819.57,685.952 1819.84,688.661 1820.17,691.259 1820.56,693.744 1821,696.118 1821.51,698.381 1822.08,700.531 1822.71,702.57 1823.39,704.497 1824.14,706.313 1824.95,708.017 1825.81,709.608 1826.74,711.089 " />
<polyline fill="none" vector-effect="none" points="1826.74,711.089 1827.73,712.468 1828.79,713.759 1829.91,714.961 1831.11,716.074 1832.37,717.098 1833.7,718.032 1835.09,718.878 1836.56,719.635 1838.09,720.302 1839.69,720.881 1841.36,721.37 1843.09,721.771 1844.9,722.083 1846.77,722.305 1848.71,722.439 1850.72,722.483 " />
<polyline fill="none" vector-effect="none" points="1850.72,722.483 1853.5,722.386 1856.16,722.096 1858.69,721.612 1861.1,720.935 1863.38,720.064 1865.54,718.999 1867.57,717.741 1869.48,716.29 " />
<polyline fill="none" vector-effect="none" points="1869.48,716.29 1871.24,714.652 1872.85,712.837 1874.28,710.844 1875.56,708.673 1876.68,706.325 1877.63,703.798 1878.42,701.094 1879.04,698.212 " />
<polyline fill="none" vector-effect="none" points="1879.04,698.212 1879.91,698.212 " />
<polyline fill="none" vector-effect="none" points="1879.91,698.212 1880.63,701.781 1881.5,705.106 1882.54,708.186 1883.74,711.022 1885.1,713.614 1886.62,715.962 1888.3,718.065 1890.14,719.925 " />
<polyline fill="none" vector-effect="none" points="1890.14,719.925 1892.14,721.553 1894.3,722.965 1896.61,724.159 1899.08,725.136 1901.7,725.896 1904.48,726.439 1907.41,726.765 1910.5,726.873 " />
<polyline fill="none" vector-effect="none" points="1910.5,726.873 1912.61,726.828 1914.66,726.69 1916.65,726.461 1918.59,726.141 1920.46,725.729 1922.28,725.226 1924.04,724.631 1925.74,723.944 1927.38,723.166 1928.96,722.297 1930.49,721.336 1931.95,720.283 1933.36,719.139 1934.71,717.903 1936,716.576 1937.23,715.157 " />
<polyline fill="none" vector-effect="none" points="1937.23,715.157 1938.4,713.656 1939.49,712.084 1940.5,710.438 1941.44,708.721 1942.3,706.931 1943.09,705.069 1943.81,703.134 1944.45,701.127 1945.01,699.048 1945.5,696.897 1945.91,694.673 1946.25,692.377 1946.51,690.008 1946.7,687.568 1946.81,685.055 1946.85,682.469 " />
<polyline fill="none" vector-effect="none" points="1946.85,682.469 1946.85,637.562 " />
<polyline fill="none" vector-effect="none" points="1946.85,637.562 1819.09,637.562 " />
<polyline fill="none" vector-effect="none" points="1898.7,1358.62 1901.6,1358.57 1904.42,1358.44 1907.16,1358.2 1909.81,1357.88 1912.39,1357.46 1914.89,1356.95 1917.3,1356.35 1919.64,1355.65 1921.89,1354.86 1924.06,1353.98 1926.16,1353 1928.17,1351.94 1930.1,1350.78 1931.95,1349.52 1933.72,1348.18 1935.41,1346.74 " />
<polyline fill="none" vector-effect="none" points="1935.41,1346.74 1937.01,1345.22 1938.51,1343.62 1939.9,1341.96 1941.19,1340.23 1942.37,1338.42 1943.46,1336.55 1944.44,1334.6 1945.31,1332.58 1946.09,1330.49 1946.76,1328.33 1947.32,1326.1 1947.79,1323.8 1948.15,1321.43 1948.41,1318.98 1948.56,1316.47 1948.61,1313.88 " />
<polyline fill="none" vector-effect="none" points="1948.61,1313.88 1948.52,1310.67 1948.23,1307.55 1947.76,1304.53 1947.09,1301.6 1946.24,1298.76 1945.19,1296.02 1943.96,1293.37 1942.53,1290.81 " />
<polyline fill="none" vector-effect="none" points="1942.53,1290.81 1940.93,1288.38 1939.16,1286.08 1937.23,1283.93 1935.13,1281.93 1932.87,1280.07 1930.44,1278.35 1927.85,1276.78 1925.1,1275.35 " />
<polyline fill="none" vector-effect="none" points="1925.1,1275.35 1922.2,1274.08 1919.19,1272.98 1916.06,1272.04 1912.82,1271.28 1909.46,1270.69 1905.99,1270.26 1902.4,1270.01 1898.7,1269.92 " />
<polyline fill="none" vector-effect="none" points="1898.7,1269.92 1895.81,1269.97 1893.01,1270.11 1890.29,1270.34 1887.64,1270.66 1885.08,1271.07 1882.6,1271.57 1880.2,1272.17 1877.88,1272.85 1875.64,1273.63 1873.48,1274.5 1871.4,1275.46 1869.41,1276.52 1867.49,1277.66 1865.65,1278.9 1863.9,1280.22 1862.22,1281.64 " />
<polyline fill="none" vector-effect="none" points="1862.22,1281.64 1860.64,1283.14 1859.16,1284.72 1857.78,1286.37 1856.5,1288.09 1855.33,1289.88 1854.26,1291.75 1853.29,1293.7 1852.42,1295.71 1851.65,1297.8 1850.99,1299.97 1850.43,1302.2 1849.97,1304.52 1849.61,1306.9 1849.36,1309.36 1849.2,1311.89 1849.15,1314.5 " />
<polyline fill="none" vector-effect="none" points="1849.15,1314.5 1849.2,1317 1849.36,1319.43 1849.62,1321.81 1849.98,1324.11 1850.45,1326.35 1851.02,1328.53 1851.7,1330.64 1852.48,1332.68 1853.37,1334.66 1854.36,1336.58 1855.45,1338.43 1856.65,1340.21 1857.95,1341.93 1859.35,1343.58 1860.86,1345.17 1862.48,1346.69 " />
<polyline fill="none" vector-effect="none" points="1862.48,1346.69 1864.18,1348.14 1865.96,1349.49 1867.81,1350.75 1869.74,1351.91 1871.74,1352.98 1873.81,1353.96 1875.97,1354.85 1878.19,1355.64 1880.49,1356.34 1882.87,1356.94 1885.32,1357.46 1887.85,1357.88 1890.45,1358.2 1893.12,1358.43 1895.87,1358.57 1898.7,1358.62 " />
<polyline fill="none" vector-effect="none" points="1946.85,988.403 1907.26,973.024 " />
<polyline fill="none" vector-effect="none" points="1907.26,973.024 1907.26,922.328 " />
<polyline fill="none" vector-effect="none" points="1907.26,922.328 1946.85,907.117 " />
<polyline fill="none" vector-effect="none" points="1946.85,907.117 1946.85,890.871 " />
<polyline fill="none" vector-effect="none" points="1946.85,890.871 1818.56,940.755 " />
<polyline fill="none" vector-effect="none" points="1818.56,940.755 1818.56,955.268 " />
<polyline fill="none" vector-effect="none" points="1818.56,955.268 1946.85,1005.07 " />
<polyline fill="none" vector-effect="none" points="1946.85,1005.07 1946.85,988.403 " />
<polyline fill="none" vector-effect="none" points="1898.7,881.168 1901.6,881.122 1904.42,880.982 1907.16,880.75 1909.81,880.425 1912.39,880.008 1914.89,879.497 1917.3,878.893 1919.64,878.197 1921.89,877.408 1924.06,876.526 1926.16,875.551 1928.17,874.483 1930.1,873.323 1931.95,872.069 1933.72,870.723 1935.41,869.284 " />
<polyline fill="none" vector-effect="none" points="1935.41,869.284 1937.01,867.763 1938.51,866.171 1939.9,864.508 1941.19,862.774 1942.37,860.969 1943.46,859.093 1944.44,857.146 1945.31,855.128 1946.09,853.039 1946.76,850.879 1947.32,848.648 1947.79,846.347 1948.15,843.974 1948.41,841.53 1948.56,839.015 1948.61,836.429 " />
<polyline fill="none" vector-effect="none" points="1948.61,836.429 1948.52,833.218 1948.23,830.101 1947.76,827.077 1947.09,824.146 1946.24,821.31 1945.19,818.566 1943.96,815.916 1942.53,813.36 " />
<polyline fill="none" vector-effect="none" points="1942.53,813.36 1940.93,810.922 1939.16,808.629 1937.23,806.48 1935.13,804.475 1932.87,802.614 1930.44,800.898 1927.85,799.325 1925.1,797.897 " />
<polyline fill="none" vector-effect="none" points="1925.1,797.897 1922.2,796.626 1919.19,795.524 1916.06,794.591 1912.82,793.828 1909.46,793.235 1905.99,792.811 1902.4,792.557 1898.7,792.472 " />
<polyline fill="none" vector-effect="none" points="1898.7,792.472 1895.81,792.518 1893.01,792.655 1890.29,792.884 1887.64,793.205 1885.08,793.616 1882.6,794.12 1880.2,794.715 1877.88,795.401 1875.64,796.179 1873.48,797.049 1871.4,798.01 1869.41,799.063 1867.49,800.207 1865.65,801.442 1863.9,802.77 1862.22,804.188 " />
<polyline fill="none" vector-effect="none" points="1862.22,804.188 1860.64,805.69 1859.16,807.265 1857.78,808.913 1856.5,810.635 1855.33,812.431 1854.26,814.301 1853.29,816.244 1852.42,818.26 1851.65,820.351 1850.99,822.515 1850.43,824.752 1849.97,827.063 1849.61,829.448 1849.36,831.906 1849.2,834.438 1849.15,837.044 " />
<polyline fill="none" vector-effect="none" points="1849.15,837.044 1849.2,839.545 1849.36,841.982 1849.62,844.353 1849.98,846.658 1850.45,848.899 1851.02,851.075 1851.7,853.185 1852.48,855.23 1853.37,857.21 1854.36,859.124 1855.45,860.973 1856.65,862.758 1857.95,864.477 1859.35,866.13 1860.86,867.719 1862.48,869.242 " />
<polyline fill="none" vector-effect="none" points="1862.48,869.242 1864.18,870.686 1865.96,872.037 1867.81,873.295 1869.74,874.46 1871.74,875.531 1873.81,876.51 1875.97,877.395 1878.19,878.187 1880.49,878.885 1882.87,879.491 1885.32,880.003 1887.85,880.423 1890.45,880.749 1893.12,880.982 1895.87,881.121 1898.7,881.168 " />
<polyline fill="none" vector-effect="none" points="1357.8,1535.05 1959.19,1535.05 " />
<polyline fill="none" vector-effect="none" points="1383.63,525.694 1959.19,525.694 " />
<polyline fill="none" vector-effect="none" points="1959.19,525.694 1959.19,1535.05 " />
<polyline fill="none" vector-effect="none" points="1900.14,602.456 1899.98,600.044 1899.48,597.676 1898.67,595.398 1897.56,593.252 1896.17,591.276 1894.52,589.509 1892.64,587.984 1890.58,586.727 1888.36,585.764 1886.03,585.112 1883.63,584.783 1881.22,584.783 1878.82,585.112 1876.49,585.764 1874.28,586.727 1872.21,587.984 1870.34,589.509 1868.68,591.276 1867.29,593.252 1866.18,595.398 1865.37,597.676 1864.88,600.044 1864.71,602.456 1864.88,604.868 1865.37,607.235 1866.18,609.513 1867.29,611.66 1868.68,613.635 1870.34,615.402 1872.21,616.928 1874.28,618.184 1876.49,619.147 1878.82,619.799 1881.22,620.129 1883.63,620.129 1886.03,619.799 1888.36,619.147 1890.58,618.184 1892.64,616.928 1894.52,615.402 1896.17,613.635 1897.56,611.66 1898.67,609.513 1899.48,607.235 1899.98,604.868 1900.14,602.456 " />
<polyline fill="none" vector-effect="none" points="1900.14,1458.29 1899.98,1455.88 1899.48,1453.51 1898.67,1451.23 1897.56,1449.09 1896.17,1447.11 1894.52,1445.35 1892.64,1443.82 1890.58,1442.56 1888.36,1441.6 1886.03,1440.95 1883.63,1440.62 1881.22,1440.62 1878.82,1440.95 1876.49,1441.6 1874.28,1442.56 1872.21,1443.82 1870.34,1445.35 1868.68,1447.11 1867.29,1449.09 1866.18,1451.23 1865.37,1453.51 1864.88,1455.88 1864.71,1458.29 1864.88,1460.7 1865.37,1463.07 1866.18,1465.35 1867.29,1467.5 1868.68,1469.47 1870.34,1471.24 1872.21,1472.76 1874.28,1474.02 1876.49,1474.98 1878.82,1475.64 1881.22,1475.96 1883.63,1475.96 1886.03,1475.64 1888.36,1474.98 1890.58,1474.02 1892.64,1472.76 1894.52,1471.24 1896.17,1469.47 1897.56,1467.5 1898.67,1465.35 1899.48,1463.07 1899.98,1460.7 1900.14,1458.29 " />
<polyline fill="none" vector-effect="none" points="1832.82,1198.37 1832.82,1177.23 " />
<polyline fill="none" vector-effect="none" points="1837.45,1222.01 1836.36,1220.01 1835.42,1217.73 1834.63,1215.18 1833.98,1212.36 1833.47,1209.27 1833.11,1205.91 1832.89,1202.27 1832.82,1198.37 " />
<polyline fill="none" vector-effect="none" points="1852.56,1229.49 1850.03,1229.37 1847.69,1229.02 1845.52,1228.44 1843.54,1227.62 1841.74,1226.57 1840.13,1225.28 1838.7,1223.77 1837.45,1222.01 " />
<polyline fill="none" vector-effect="none" points="1868.64,1222.67 1867.34,1224.27 1865.83,1225.65 1864.13,1226.83 1862.22,1227.79 1860.11,1228.53 1857.79,1229.07 1855.28,1229.39 1852.56,1229.49 " />
<polyline fill="none" vector-effect="none" points="1873.45,1200.83 1873.38,1204.46 1873.15,1207.83 1872.77,1210.94 1872.25,1213.8 1871.57,1216.4 1870.74,1218.75 1869.77,1220.84 1868.64,1222.67 " />
<polyline fill="none" vector-effect="none" points="1873.45,1177.23 1873.45,1200.83 " />
<polyline fill="none" vector-effect="none" points="1832.82,1177.23 1873.45,1177.23 " />
<polyline fill="none" vector-effect="none" points="1892.37,1225.38 1891.09,1223.29 1889.97,1220.96 1889.04,1218.38 1888.27,1215.55 1887.67,1212.48 1887.24,1209.16 1886.99,1205.59 1886.9,1201.78 " />
<polyline fill="none" vector-effect="none" points="1909.27,1233.24 1906.5,1233.12 1903.92,1232.75 1901.53,1232.13 1899.33,1231.27 1897.31,1230.17 1895.47,1228.82 1893.83,1227.22 1892.37,1225.38 " />
<polyline fill="none" vector-effect="none" points="1927.26,1225.81 1925.68,1227.55 1923.91,1229.06 1921.95,1230.34 1919.79,1231.38 1917.45,1232.19 1914.91,1232.77 1912.19,1233.12 1909.27,1233.24 " />
<polyline fill="none" vector-effect="none" points="1933.21,1203.01 1933.11,1206.73 1932.83,1210.2 1932.37,1213.43 1931.72,1216.4 1930.88,1219.13 1929.86,1221.61 1928.66,1223.83 1927.26,1225.81 " />
<polyline fill="none" vector-effect="none" points="1933.21,1177.23 1933.21,1203.01 " />
<polyline fill="none" vector-effect="none" points="1886.9,1177.23 1933.21,1177.23 " />
<polyline fill="none" vector-effect="none" points="1886.9,1201.78 1886.9,1177.23 " />
<polyline fill="none" vector-effect="none" points="1832.82,674.78 1832.82,653.641 " />
<polyline fill="none" vector-effect="none" points="1837.45,698.422 1836.36,696.416 1835.42,694.139 1834.63,691.591 1833.98,688.771 1833.47,685.681 1833.11,682.318 1832.89,678.685 1832.82,674.78 " />
<polyline fill="none" vector-effect="none" points="1852.56,705.902 1850.03,705.785 1847.69,705.434 1845.52,704.85 1843.54,704.032 1841.74,702.98 1840.13,701.694 1838.7,700.175 1837.45,698.422 " />
<polyline fill="none" vector-effect="none" points="1868.64,699.079 1867.34,700.678 1865.83,702.064 1864.13,703.237 1862.22,704.196 1860.11,704.942 1857.79,705.475 1855.28,705.795 1852.56,705.902 " />
<polyline fill="none" vector-effect="none" points="1873.45,677.241 1873.38,680.866 1873.15,684.236 1872.77,687.35 1872.25,690.208 1871.57,692.81 1870.74,695.156 1869.77,697.245 1868.64,699.079 " />
<polyline fill="none" vector-effect="none" points="1873.45,653.641 1873.45,677.241 " />
<polyline fill="none" vector-effect="none" points="1832.82,653.641 1873.45,653.641 " />
<polyline fill="none" vector-effect="none" points="1892.37,701.791 1891.09,699.704 1889.97,697.37 1889.04,694.789 1888.27,691.963 1887.67,688.889 1887.24,685.57 1886.99,682.004 1886.9,678.191 " />
<polyline fill="none" vector-effect="none" points="1909.27,709.649 1906.5,709.526 1903.92,709.158 1901.53,708.544 1899.33,707.684 1897.31,706.579 1895.47,705.229 1893.83,703.633 1892.37,701.791 " />
<polyline fill="none" vector-effect="none" points="1927.26,702.225 1925.68,703.965 1923.91,705.473 1921.95,706.749 1919.79,707.793 1917.45,708.605 1914.91,709.185 1912.19,709.533 1909.27,709.649 " />
<polyline fill="none" vector-effect="none" points="1933.21,679.422 1933.11,683.142 1932.83,686.614 1932.37,689.837 1931.72,692.812 1930.88,695.538 1929.86,698.016 1928.66,700.244 1927.26,702.225 " />
<polyline fill="none" vector-effect="none" points="1933.21,653.641 1933.21,679.422 " />
<polyline fill="none" vector-effect="none" points="1886.9,653.641 1933.21,653.641 " />
<polyline fill="none" vector-effect="none" points="1886.9,678.191 1886.9,653.641 " />
<polyline fill="none" vector-effect="none" points="1871.48,1335.16 1870.37,1334.23 1869.34,1333.25 1868.38,1332.22 1867.48,1331.14 1866.66,1330 1865.92,1328.81 1865.24,1327.57 1864.63,1326.28 1864.1,1324.93 1863.63,1323.53 1863.24,1322.08 1862.92,1320.58 1862.67,1319.03 1862.49,1317.42 1862.38,1315.76 1862.35,1314.05 " />
<polyline fill="none" vector-effect="none" points="1898.7,1342.37 1896.47,1342.35 1894.32,1342.26 1892.23,1342.12 1890.21,1341.92 1888.27,1341.67 1886.39,1341.36 1884.59,1340.99 1882.85,1340.57 1881.18,1340.09 1879.59,1339.56 1878.06,1338.96 1876.6,1338.32 1875.22,1337.61 1873.9,1336.85 1872.66,1336.03 1871.48,1335.16 " />
<polyline fill="none" vector-effect="none" points="1926.19,1335.2 1924.98,1336.07 1923.7,1336.88 1922.36,1337.64 1920.95,1338.34 1919.47,1338.98 1917.92,1339.57 1916.3,1340.11 1914.62,1340.58 1912.87,1341 1911.05,1341.37 1909.16,1341.67 1907.2,1341.93 1905.18,1342.12 1903.09,1342.26 1900.93,1342.35 1898.7,1342.37 " />
<polyline fill="none" vector-effect="none" points="1935.58,1314.33 1935.55,1316.02 1935.44,1317.65 1935.25,1319.24 1934.99,1320.77 1934.66,1322.25 1934.26,1323.69 1933.78,1325.07 1933.23,1326.4 1932.61,1327.68 1931.91,1328.91 1931.14,1330.08 1930.3,1331.21 1929.38,1332.28 1928.39,1333.31 1927.32,1334.28 1926.19,1335.2 " />
<polyline fill="none" vector-effect="none" points="1926.19,1293.3 1927.32,1294.22 1928.39,1295.19 1929.38,1296.21 1930.3,1297.29 1931.14,1298.42 1931.91,1299.6 1932.61,1300.84 1933.23,1302.12 1933.78,1303.46 1934.26,1304.86 1934.66,1306.3 1934.99,1307.8 1935.25,1309.36 1935.44,1310.96 1935.55,1312.62 1935.58,1314.33 " />
<polyline fill="none" vector-effect="none" points="1898.7,1286.17 1900.93,1286.2 1903.09,1286.28 1905.18,1286.42 1907.2,1286.62 1909.16,1286.87 1911.05,1287.17 1912.87,1287.54 1914.62,1287.95 1916.3,1288.43 1917.92,1288.96 1919.47,1289.54 1920.95,1290.18 1922.36,1290.88 1923.7,1291.63 1924.98,1292.44 1926.19,1293.3 " />
<polyline fill="none" vector-effect="none" points="1862.35,1314.05 1862.38,1312.33 1862.49,1310.67 1862.67,1309.07 1862.92,1307.52 1863.24,1306.02 1863.63,1304.57 1864.09,1303.19 1864.62,1301.85 1865.22,1300.57 1865.9,1299.35 1866.64,1298.18 1867.46,1297.06 1868.35,1296 1869.31,1294.99 1870.34,1294.04 1871.44,1293.14 1872.61,1292.3 1873.85,1291.51 1875.16,1290.77 1876.55,1290.09 1878,1289.47 1879.53,1288.89 1881.13,1288.38 1882.8,1287.91 1884.54,1287.5 1886.35,1287.15 1888.23,1286.85 1890.18,1286.61 1892.2,1286.42 1894.3,1286.28 1896.46,1286.2 1898.7,1286.17 " />
<polyline fill="none" vector-effect="none" points="1854.32,942.265 1893.02,927.753 " />
<polyline fill="none" vector-effect="none" points="1835.17,947.746 1840.3,946.428 1845.2,945.075 1849.88,943.688 1854.32,942.265 " />
<polyline fill="none" vector-effect="none" points="1854.32,953.869 1835.17,947.746 " />
<polyline fill="none" vector-effect="none" points="1893.02,968.214 1854.32,953.869 " />
<polyline fill="none" vector-effect="none" points="1893.02,927.753 1893.02,968.214 " />
<polyline fill="none" vector-effect="none" points="1871.48,857.708 1870.37,856.78 1869.34,855.8 1868.38,854.768 1867.48,853.683 1866.66,852.546 1865.92,851.357 1865.24,850.116 1864.63,848.823 1864.1,847.477 1863.63,846.08 1863.24,844.63 1862.92,843.127 1862.67,841.573 1862.49,839.966 1862.38,838.308 1862.35,836.596 " />
<polyline fill="none" vector-effect="none" points="1898.7,864.922 1896.47,864.894 1894.32,864.809 1892.23,864.668 1890.21,864.471 1888.27,864.218 1886.39,863.908 1884.59,863.541 1882.85,863.119 1881.18,862.639 1879.59,862.104 1878.06,861.512 1876.6,860.864 1875.22,860.16 1873.9,859.399 1872.66,858.581 1871.48,857.708 " />
<polyline fill="none" vector-effect="none" points="1926.19,857.75 1924.98,858.618 1923.7,859.431 1922.36,860.187 1920.95,860.888 1919.47,861.532 1917.92,862.12 1916.3,862.653 1914.62,863.129 1912.87,863.549 1911.05,863.913 1909.16,864.222 1907.2,864.474 1905.18,864.67 1903.09,864.81 1900.93,864.894 1898.7,864.922 " />
<polyline fill="none" vector-effect="none" points="1935.58,836.876 1935.55,838.563 1935.44,840.199 1935.25,841.785 1934.99,843.319 1934.66,844.802 1934.26,846.234 1933.78,847.615 1933.23,848.945 1932.61,850.224 1931.91,851.452 1931.14,852.63 1930.3,853.756 1929.38,854.831 1928.39,855.855 1927.32,856.828 1926.19,857.75 " />
<polyline fill="none" vector-effect="none" points="1926.19,815.849 1927.32,816.766 1928.39,817.737 1929.38,818.76 1930.3,819.837 1931.14,820.966 1931.91,822.148 1932.61,823.383 1933.23,824.671 1933.78,826.011 1934.26,827.405 1934.66,828.851 1934.99,830.35 1935.25,831.903 1935.44,833.508 1935.55,835.165 1935.58,836.876 " />
<polyline fill="none" vector-effect="none" points="1898.7,808.718 1900.93,808.746 1903.09,808.83 1905.18,808.969 1907.2,809.164 1909.16,809.415 1911.05,809.721 1912.87,810.083 1914.62,810.501 1916.3,810.974 1917.92,811.504 1919.47,812.088 1920.95,812.729 1922.36,813.425 1923.7,814.177 1924.98,814.985 1926.19,815.849 " />
<polyline fill="none" vector-effect="none" points="1862.35,836.596 1862.38,834.881 1862.49,833.221 1862.67,831.614 1862.92,830.063 1863.24,828.565 1863.63,827.122 1864.09,825.734 1864.62,824.4 1865.22,823.12 1865.9,821.895 1866.64,820.724 1867.46,819.608 1868.35,818.546 1869.31,817.539 1870.34,816.586 1871.44,815.688 1872.61,814.844 1873.85,814.054 1875.16,813.319 1876.55,812.639 1878,812.012 1879.53,811.441 1881.13,810.924 1882.8,810.461 1884.54,810.052 1886.35,809.698 1888.23,809.399 1890.18,809.154 1892.2,808.963 1894.3,808.827 1896.46,808.746 1898.7,808.718 " />
<polyline fill="none" vector-effect="none" points="1002.62,109.29 1002.45,106.878 1001.96,104.511 1001.15,102.233 1000.04,100.086 998.643,98.1107 996.993,96.3437 995.118,94.8179 993.052,93.5617 990.834,92.5985 988.506,91.9462 986.111,91.617 983.693,91.617 981.298,91.9462 978.97,92.5985 976.753,93.5617 974.687,94.8179 972.811,96.3437 971.161,98.1107 969.767,100.086 968.655,102.233 967.845,104.511 967.353,106.878 967.188,109.29 967.353,111.702 967.845,114.069 968.655,116.347 969.767,118.494 971.161,120.469 972.811,122.236 974.687,123.762 976.753,125.018 978.97,125.981 981.298,126.634 983.693,126.963 986.111,126.963 988.506,126.634 990.834,125.981 993.052,125.018 995.118,123.762 996.993,122.236 998.643,120.469 1000.04,118.494 1001.15,116.347 1001.96,114.069 1002.45,111.702 1002.62,109.29 " />
<polyline fill="none" vector-effect="none" points="146.78,1464.55 146.615,1462.14 146.123,1459.77 145.314,1457.49 144.202,1455.35 142.807,1453.37 141.157,1451.6 139.282,1450.08 137.216,1448.82 134.998,1447.86 132.67,1447.21 130.275,1446.88 127.857,1446.88 125.462,1447.21 123.134,1447.86 120.916,1448.82 118.851,1450.08 116.975,1451.6 115.325,1453.37 113.931,1455.35 112.818,1457.49 112.009,1459.77 111.517,1462.14 111.352,1464.55 111.517,1466.96 112.009,1469.33 112.818,1471.61 113.931,1473.75 115.325,1475.73 116.975,1477.5 118.851,1479.02 120.916,1480.28 123.134,1481.24 125.462,1481.89 127.857,1482.22 130.275,1482.22 132.67,1481.89 134.998,1481.24 137.216,1480.28 139.282,1479.02 141.157,1477.5 142.807,1475.73 144.202,1473.75 145.314,1471.61 146.123,1469.33 146.615,1466.96 146.78,1464.55 " />
<polyline fill="none" vector-effect="none" points="1002.62,1464.55 1002.45,1462.14 1001.96,1459.77 1001.15,1457.49 1000.04,1455.35 998.643,1453.37 996.993,1451.6 995.118,1450.08 993.052,1448.82 990.834,1447.86 988.506,1447.21 986.111,1446.88 983.693,1446.88 981.298,1447.21 978.97,1447.86 976.753,1448.82 974.687,1450.08 972.811,1451.6 971.161,1453.37 969.767,1455.35 968.655,1457.49 967.845,1459.77 967.353,1462.14 967.188,1464.55 967.353,1466.96 967.845,1469.33 968.655,1471.61 969.767,1473.75 971.161,1475.73 972.811,1477.5 974.687,1479.02 976.753,1480.28 978.97,1481.24 981.298,1481.89 983.693,1482.22 986.111,1482.22 988.506,1481.89 990.834,1481.24 993.052,1480.28 995.118,1479.02 996.993,1477.5 998.643,1475.73 1000.04,1473.75 1001.15,1471.61 1001.96,1469.33 1002.45,1466.96 1002.62,1464.55 " />
<polyline fill="none" vector-effect="none" points="146.78,109.29 146.615,106.878 146.123,104.511 145.314,102.233 144.202,100.086 142.807,98.1107 141.157,96.3437 139.282,94.8179 137.216,93.5617 134.998,92.5985 132.67,91.9462 130.275,91.617 127.857,91.617 125.462,91.9462 123.134,92.5985 120.916,93.5617 118.851,94.8179 116.975,96.3437 115.325,98.1107 113.931,100.086 112.818,102.233 112.009,104.511 111.517,106.878 111.352,109.29 111.517,111.702 112.009,114.069 112.818,116.347 113.931,118.494 115.325,120.469 116.975,122.236 118.851,123.762 120.916,125.018 123.134,125.981 125.462,126.634 127.857,126.963 130.275,126.963 132.67,126.634 134.998,125.981 137.216,125.018 139.282,123.762 141.157,122.236 142.807,120.469 144.202,118.494 145.314,116.347 146.123,114.069 146.615,111.702 146.78,109.29 " />
<polyline fill="none" vector-effect="none" points="1061.66,1541.31 52.3042,1541.31 " />
<polyline fill="none" vector-effect="none" points="52.3042,32.528 52.3042,1541.31 " />
<polyline fill="none" vector-effect="none" points="1061.66,32.528 52.3042,32.528 " />
<polyline fill="none" vector-effect="none" points="1061.66,32.528 1061.66,1541.31 " />
</g>

<g fill="none" stroke="#000000" stroke-opacity="1" stroke-width="1" stroke-linecap="square" stroke-linejoin="bevel" transform="matrix(1,0,0,1,0,0)"
font-family="Arial" font-size="12" font-weight="400" font-style="normal" 
>
</g>
</g>
</svg>
