<?xml version="1.0" encoding="UTF-8" standalone="no"?>
<svg
   xmlns:dc="http://purl.org/dc/elements/1.1/"
   xmlns:cc="http://creativecommons.org/ns#"
   xmlns:rdf="http://www.w3.org/1999/02/22-rdf-syntax-ns#"
   xmlns:svg="http://www.w3.org/2000/svg"
   xmlns="http://www.w3.org/2000/svg"
   xmlns:sodipodi="http://sodipodi.sourceforge.net/DTD/sodipodi-0.dtd"
   xmlns:inkscape="http://www.inkscape.org/namespaces/inkscape"
   width="346.7mm"
   height="174mm"
   viewBox="0 0 346.7 174"
   version="1.1"
   preserveAspectRatio="xMidYMid meet"
   id="svg70"
   sodipodi:docname="Glycerol stock box2.svg"
   inkscape:version="0.92.5 (2060ec1f9f, 2020-04-08)">
  <metadata
     id="metadata76">
    <rdf:RDF>
      <cc:Work
         rdf:about="">
        <dc:format>image/svg+xml</dc:format>
        <dc:type
           rdf:resource="http://purl.org/dc/dcmitype/StillImage" />
        <dc:title></dc:title>
      </cc:Work>
    </rdf:RDF>
  </metadata>
  <defs
     id="defs74" />
  <sodipodi:namedview
     pagecolor="#ffffff"
     bordercolor="#666666"
     borderopacity="1"
     objecttolerance="10"
     gridtolerance="10"
     guidetolerance="10"
     inkscape:pageopacity="0"
     inkscape:pageshadow="2"
     inkscape:window-width="1848"
     inkscape:window-height="1016"
     id="namedview72"
     showgrid="false"
     inkscape:zoom="1.2721673"
     inkscape:cx="655.18113"
     inkscape:cy="328.8189"
     inkscape:window-x="72"
     inkscape:window-y="27"
     inkscape:window-maximized="1"
     inkscape:current-layer="svg70" />
  <g
     id="svgGroup"
     font-size="9pt"
     style="stroke:#000;stroke-width:0.25mm;fill:none"
     stroke-linecap="round"
     stroke-width="0.25mm"
     stroke="#000"
     fill-rule="evenodd"
     fill="none">
    <path
       d="M 0 154 L 0 159.5 L 3 159.5 L 3 168.5 L 0 168.5 L 0 174 L 14.3 174 L 14.3 171 L 23.3 171 L 23.3 174 L 32.3 174 L 32.3 171 L 41.3 171 L 41.3 174 L 50.3 174 L 50.3 171 L 59.3 171 L 59.3 174 L 68.3 174 L 68.3 171 L 77.3 171 L 77.3 174 L 86.3 174 L 86.3 171 L 95.3 171 L 95.3 174 L 104.3 174 L 104.3 171 L 113.3 171 L 113.3 174 L 122.3 174 L 127.6 174 L 127.6 168.5 L 124.6 168.5 L 124.6 159.5 L 127.6 159.5 L 127.6 154 L 113.3 154 L 113.3 157 L 104.3 157 L 104.3 154 L 95.3 154 L 95.3 157 L 86.3 157 L 86.3 154 L 77.3 154 L 77.3 157 L 68.3 157 L 68.3 154 L 59.3 154 L 59.3 157 L 50.3 157 L 50.3 154 L 41.3 154 L 41.3 157 L 32.3 157 L 32.3 154 L 23.3 154 L 23.3 157 L 14.3 157 L 14.3 154 L 5.3 154 L 0 154 Z"
       id="front_outsideCutPath"
       style="stroke:#FF0000;stroke-width:0.1"
       stroke-width="0.1"
       stroke="#FF0000"
       vector-effect="non-scaling-stroke" />
    <path
       d="M 133.6 154 L 133.6 159.5 L 130.6 159.5 L 130.6 168.5 L 133.6 168.5 L 133.6 174 L 141.85 174 L 141.85 171 L 150.85 171 L 150.85 174 L 159.85 174 L 159.85 171 L 168.85 171 L 168.85 174 L 177.85 174 L 177.85 171 L 186.85 171 L 186.85 174 L 195.85 174 L 195.85 171 L 204.85 171 L 204.85 174 L 213.1 174 L 213.1 168.5 L 216.1 168.5 L 216.1 159.5 L 213.1 159.5 L 213.1 154 L 204.85 154 L 204.85 157 L 195.85 157 L 195.85 154 L 186.85 154 L 186.85 157 L 177.85 157 L 177.85 154 L 168.85 154 L 168.85 157 L 159.85 157 L 159.85 154 L 150.85 154 L 150.85 157 L 141.85 157 L 141.85 154 L 133.6 154 Z"
       id="left_outsideCutPath"
       style="stroke:#FF0000;stroke-width:0.1"
       stroke-width="0.1"
       stroke="#FF0000"
       vector-effect="non-scaling-stroke" />
    <path
       d="M 222.1 91.5 L 222.1 99.75 L 219.1 99.75 L 219.1 108.75 L 222.1 108.75 L 222.1 117.75 L 219.1 117.75 L 219.1 126.75 L 222.1 126.75 L 222.1 135.75 L 219.1 135.75 L 219.1 144.75 L 222.1 144.75 L 222.1 153.75 L 219.1 153.75 L 219.1 162.75 L 222.1 162.75 L 222.1 171 L 233.4 171 L 233.4 174 L 242.4 174 L 242.4 171 L 251.4 171 L 251.4 174 L 260.4 174 L 260.4 171 L 269.4 171 L 269.4 174 L 278.4 174 L 278.4 171 L 287.4 171 L 287.4 174 L 296.4 174 L 296.4 171 L 305.4 171 L 305.4 174 L 314.4 174 L 314.4 171 L 323.4 171 L 323.4 174 L 332.4 174 L 332.4 171 L 341.4 171 L 343.7 171 L 343.7 162.75 L 346.7 162.75 L 346.7 153.75 L 343.7 153.75 L 343.7 144.75 L 346.7 144.75 L 346.7 135.75 L 343.7 135.75 L 343.7 126.75 L 346.7 126.75 L 346.7 117.75 L 343.7 117.75 L 343.7 108.75 L 346.7 108.75 L 346.7 99.75 L 343.7 99.75 L 343.7 91.5 L 332.4 91.5 L 332.4 88.5 L 323.4 88.5 L 323.4 91.5 L 314.4 91.5 L 314.4 88.5 L 305.4 88.5 L 305.4 91.5 L 296.4 91.5 L 296.4 88.5 L 287.4 88.5 L 287.4 91.5 L 278.4 91.5 L 278.4 88.5 L 269.4 88.5 L 269.4 91.5 L 260.4 91.5 L 260.4 88.5 L 251.4 88.5 L 251.4 91.5 L 242.4 91.5 L 242.4 88.5 L 233.4 88.5 L 233.4 91.5 L 224.4 91.5 L 222.1 91.5 Z"
       id="top_outsideCutPath"
       style="stroke:#FF0000;stroke-width:0.1"
       stroke-width="0.1"
       stroke="#FF0000"
       vector-effect="non-scaling-stroke" />
    <path
       d="M 0 131 L 0 136.5 L 3 136.5 L 3 145.5 L 0 145.5 L 0 151 L 14.3 151 L 14.3 148 L 23.3 148 L 23.3 151 L 32.3 151 L 32.3 148 L 41.3 148 L 41.3 151 L 50.3 151 L 50.3 148 L 59.3 148 L 59.3 151 L 68.3 151 L 68.3 148 L 77.3 148 L 77.3 151 L 86.3 151 L 86.3 148 L 95.3 148 L 95.3 151 L 104.3 151 L 104.3 148 L 113.3 148 L 113.3 151 L 122.3 151 L 127.6 151 L 127.6 145.5 L 124.6 145.5 L 124.6 136.5 L 127.6 136.5 L 127.6 131 L 113.3 131 L 113.3 134 L 104.3 134 L 104.3 131 L 95.3 131 L 95.3 134 L 86.3 134 L 86.3 131 L 77.3 131 L 77.3 134 L 68.3 134 L 68.3 131 L 59.3 131 L 59.3 134 L 50.3 134 L 50.3 131 L 41.3 131 L 41.3 134 L 32.3 134 L 32.3 131 L 23.3 131 L 23.3 134 L 14.3 134 L 14.3 131 L 5.3 131 L 0 131 Z"
       id="back_outsideCutPath"
       style="stroke:#FF0000;stroke-width:0.1"
       stroke-width="0.1"
       stroke="#FF0000"
       vector-effect="non-scaling-stroke" />
    <path
       d="M 133.6 131 L 133.6 136.5 L 130.6 136.5 L 130.6 145.5 L 133.6 145.5 L 133.6 151 L 141.85 151 L 141.85 148 L 150.85 148 L 150.85 151 L 159.85 151 L 159.85 148 L 168.85 148 L 168.85 151 L 177.85 151 L 177.85 148 L 186.85 148 L 186.85 151 L 195.85 151 L 195.85 148 L 204.85 148 L 204.85 151 L 213.1 151 L 213.1 145.5 L 216.1 145.5 L 216.1 136.5 L 213.1 136.5 L 213.1 131 L 204.85 131 L 204.85 134 L 195.85 134 L 195.85 131 L 186.85 131 L 186.85 134 L 177.85 134 L 177.85 131 L 168.85 131 L 168.85 134 L 159.85 134 L 159.85 131 L 150.85 131 L 150.85 134 L 141.85 134 L 141.85 131 L 133.6 131 Z"
       id="right_outsideCutPath"
       style="stroke:#FF0000;stroke-width:0.1"
       stroke-width="0.1"
       stroke="#FF0000"
       vector-effect="non-scaling-stroke" />
    <path
       d="M 222.1 3 L 222.1 11.25 L 219.1 11.25 L 219.1 20.25 L 222.1 20.25 L 222.1 29.25 L 219.1 29.25 L 219.1 38.25 L 222.1 38.25 L 222.1 47.25 L 219.1 47.25 L 219.1 56.25 L 222.1 56.25 L 222.1 65.25 L 219.1 65.25 L 219.1 74.25 L 222.1 74.25 L 222.1 82.5 L 233.4 82.5 L 233.4 85.5 L 242.4 85.5 L 242.4 82.5 L 251.4 82.5 L 251.4 85.5 L 260.4 85.5 L 260.4 82.5 L 269.4 82.5 L 269.4 85.5 L 278.4 85.5 L 278.4 82.5 L 287.4 82.5 L 287.4 85.5 L 296.4 85.5 L 296.4 82.5 L 305.4 82.5 L 305.4 85.5 L 314.4 85.5 L 314.4 82.5 L 323.4 82.5 L 323.4 85.5 L 332.4 85.5 L 332.4 82.5 L 341.4 82.5 L 343.7 82.5 L 343.7 74.25 L 346.7 74.25 L 346.7 65.25 L 343.7 65.25 L 343.7 56.25 L 346.7 56.25 L 346.7 47.25 L 343.7 47.25 L 343.7 38.25 L 346.7 38.25 L 346.7 29.25 L 343.7 29.25 L 343.7 20.25 L 346.7 20.25 L 346.7 11.25 L 343.7 11.25 L 343.7 3 L 332.4 3 L 332.4 0 L 323.4 0 L 323.4 3 L 314.4 3 L 314.4 0 L 305.4 0 L 305.4 3 L 296.4 3 L 296.4 0 L 287.4 0 L 287.4 3 L 278.4 3 L 278.4 0 L 269.4 0 L 269.4 3 L 260.4 3 L 260.4 0 L 251.4 0 L 251.4 3 L 242.4 3 L 242.4 0 L 233.4 0 L 233.4 3 L 224.4 3 L 222.1 3 Z"
       id="bottom_outsideCutPath"
       style="stroke:#FF0000;stroke-width:0.1"
       stroke-width="0.1"
       stroke="#FF0000"
       vector-effect="non-scaling-stroke" />
  </g>
  <path
     inkscape:connector-curvature="0"
     d="m 245.09052,55.517753 a 6.2,6.2 0 1 0 -12.4,0 6.2,6.2 0 1 0 12.4,0 z"
     style="fill:none;stroke:#000000;stroke-width:0.26458332"
     id="path173" />
  <path
     inkscape:connector-curvature="0"
     d="m 245.09052,70.517749 a 6.2,6.2 0 1 0 -12.4,0 6.2,6.2 0 1 0 12.4,0 z"
     style="fill:none;stroke:#000000;stroke-width:0.26458332"
     id="path175" />
  <path
     inkscape:connector-curvature="0"
     d="m 275.09052,70.517749 a 6.2,6.2 0 1 0 -12.4,0 6.2,6.2 0 1 0 12.4,0 z"
     style="fill:none;stroke:#000000;stroke-width:0.26458332"
     id="path177" />
  <path
     inkscape:connector-curvature="0"
     d="m 260.09052,70.517749 a 6.2000006,6.2000006 0 1 0 -12.4,0 6.2000006,6.2000006 0 1 0 12.4,0 z"
     style="fill:none;stroke:#000000;stroke-width:0.26458332"
     id="path179" />
  <path
     inkscape:connector-curvature="0"
     d="m 260.09052,55.517753 a 6.2000006,6.2000006 0 1 0 -12.4,0 6.2000006,6.2000006 0 1 0 12.4,0 z"
     style="fill:none;stroke:#000000;stroke-width:0.26458332"
     id="path181" />
  <path
     inkscape:connector-curvature="0"
     d="m 275.09052,55.517753 a 6.2,6.2 0 1 0 -12.4,0 6.2,6.2 0 1 0 12.4,0 z"
     style="fill:none;stroke:#000000;stroke-width:0.26458332"
     id="path183" />
  <path
     inkscape:connector-curvature="0"
     d="m 290.09052,55.517753 a 6.2,6.2 0 1 0 -12.4,0 6.2,6.2 0 1 0 12.4,0 z"
     style="fill:none;stroke:#000000;stroke-width:0.26458332"
     id="path185" />
  <path
     inkscape:connector-curvature="0"
     d="m 290.09052,70.517749 a 6.2,6.2 0 1 0 -12.4,0 6.2,6.2 0 1 0 12.4,0 z"
     style="fill:none;stroke:#000000;stroke-width:0.26458332"
     id="path187" />
  <path
     inkscape:connector-curvature="0"
     d="m 305.09052,70.517749 a 6.200001,6.200001 0 1 0 -12.4,0 6.200001,6.200001 0 1 0 12.4,0 z"
     style="fill:none;stroke:#000000;stroke-width:0.26458332"
     id="path189" />
  <path
     inkscape:connector-curvature="0"
     d="m 305.09052,55.517753 a 6.200001,6.200001 0 1 0 -12.4,0 6.200001,6.200001 0 1 0 12.4,0 z"
     style="fill:none;stroke:#000000;stroke-width:0.26458332"
     id="path191" />
  <path
     inkscape:connector-curvature="0"
     d="m 320.09052,55.517753 a 6.2,6.2 0 1 0 -12.4,0 6.2,6.2 0 1 0 12.4,0 z"
     style="fill:none;stroke:#000000;stroke-width:0.26458332"
     id="path193" />
  <path
     inkscape:connector-curvature="0"
     d="m 320.09052,70.517749 a 6.2,6.2 0 1 0 -12.4,0 6.2,6.2 0 1 0 12.4,0 z"
     style="fill:none;stroke:#000000;stroke-width:0.26458332"
     id="path195" />
  <path
     inkscape:connector-curvature="0"
     d="m 335.09052,70.517749 a 6.2000015,6.2000015 0 1 0 -12.4,0 6.2000015,6.2000015 0 1 0 12.4,0 z"
     style="fill:none;stroke:#000000;stroke-width:0.26458332"
     id="path197" />
  <path
     inkscape:connector-curvature="0"
     d="m 335.09052,55.517753 a 6.2000015,6.2000015 0 1 0 -12.4,0 6.2000015,6.2000015 0 1 0 12.4,0 z"
     style="fill:none;stroke:#000000;stroke-width:0.26458332"
     id="path199" />
  <path
     inkscape:connector-curvature="0"
     d="m 275.09052,27.517746 a 6.2,6.2 0 1 0 -12.4,0 6.2,6.2 0 1 0 12.4,0 z"
     style="fill:none;stroke:#000000;stroke-width:0.26458332"
     id="path201" />
  <path
     inkscape:connector-curvature="0"
     d="m 260.09052,27.517746 a 6.2000006,6.2000006 0 1 0 -12.4,0 6.2000006,6.2000006 0 1 0 12.4,0 z"
     style="fill:none;stroke:#000000;stroke-width:0.26458332"
     id="path203" />
  <path
     inkscape:connector-curvature="0"
     d="m 245.09052,27.725724 a 6.2,6.2 0 1 0 -12.4,0 6.2,6.2 0 1 0 12.4,0 z"
     style="fill:none;stroke:#000000;stroke-width:0.26458332"
     id="path205" />
  <path
     inkscape:connector-curvature="0"
     d="m 245.09052,41.51775 a 6.2,6.2 0 1 0 -12.4,0 6.2,6.2 0 1 0 12.4,0 z"
     style="fill:none;stroke:#000000;stroke-width:0.26458332"
     id="path207" />
  <path
     inkscape:connector-curvature="0"
     d="m 335.09052,41.51775 a 6.2000015,6.2000015 0 1 0 -12.4,0 6.2000015,6.2000015 0 1 0 12.4,0 z"
     style="fill:none;stroke:#000000;stroke-width:0.26458332"
     id="path209" />
  <path
     inkscape:connector-curvature="0"
     d="m 320.09052,27.517746 a 6.2,6.2 0 1 0 -12.4,0 6.2,6.2 0 1 0 12.4,0 z"
     style="fill:none;stroke:#000000;stroke-width:0.26458332"
     id="path211" />
  <path
     inkscape:connector-curvature="0"
     d="m 335.09052,12.51775 a 6.2000015,6.2000015 0 1 0 -12.4,0 6.2000015,6.2000015 0 1 0 12.4,0 z"
     style="fill:none;stroke:#000000;stroke-width:0.26458332"
     id="path213" />
  <path
     inkscape:connector-curvature="0"
     d="m 335.09052,27.517746 a 6.2000015,6.2000015 0 1 0 -12.4,0 6.2000015,6.2000015 0 1 0 12.4,0 z"
     style="fill:none;stroke:#000000;stroke-width:0.26458332"
     id="path215" />
  <path
     inkscape:connector-curvature="0"
     d="m 275.09052,12.51775 a 6.2,6.2 0 1 0 -12.4,0 6.2,6.2 0 1 0 12.4,0 z"
     style="fill:none;stroke:#000000;stroke-width:0.26458332"
     id="path217" />
  <path
     inkscape:connector-curvature="0"
     d="m 245.09052,12.51775 a 6.2,6.2 0 1 0 -12.4,0 6.2,6.2 0 1 0 12.4,0 z"
     style="fill:none;stroke:#000000;stroke-width:0.26458332"
     id="path219" />
  <path
     inkscape:connector-curvature="0"
     d="m 290.09052,41.51775 a 6.2,6.2 0 1 0 -12.4,0 6.2,6.2 0 1 0 12.4,0 z"
     style="fill:none;stroke:#000000;stroke-width:0.26458332"
     id="path221" />
  <path
     inkscape:connector-curvature="0"
     d="m 260.09052,12.51775 a 6.2000006,6.2000006 0 1 0 -12.4,0 6.2000006,6.2000006 0 1 0 12.4,0 z"
     style="fill:none;stroke:#000000;stroke-width:0.26458332"
     id="path223" />
  <path
     inkscape:connector-curvature="0"
     d="m 320.09052,12.51775 a 6.2,6.2 0 1 0 -12.4,0 6.2,6.2 0 1 0 12.4,0 z"
     style="fill:none;stroke:#000000;stroke-width:0.26458332"
     id="path225" />
  <path
     inkscape:connector-curvature="0"
     d="m 305.09052,27.517746 a 6.200001,6.200001 0 1 0 -12.4,0 6.200001,6.200001 0 1 0 12.4,0 z"
     style="fill:none;stroke:#000000;stroke-width:0.26458332"
     id="path227" />
  <path
     inkscape:connector-curvature="0"
     d="m 305.09052,12.51775 a 6.200001,6.200001 0 1 0 -12.4,0 6.200001,6.200001 0 1 0 12.4,0 z"
     style="fill:none;stroke:#000000;stroke-width:0.26458332"
     id="path229" />
  <path
     inkscape:connector-curvature="0"
     d="m 290.09052,12.51775 a 6.2,6.2 0 1 0 -12.4,0 6.2,6.2 0 1 0 12.4,0 z"
     style="fill:none;stroke:#000000;stroke-width:0.26458332"
     id="path231" />
  <path
     inkscape:connector-curvature="0"
     d="m 290.09052,27.517746 a 6.2,6.2 0 1 0 -12.4,0 6.2,6.2 0 1 0 12.4,0 z"
     style="fill:none;stroke:#000000;stroke-width:0.26458332"
     id="path233" />
  <path
     inkscape:connector-curvature="0"
     d="m 275.09052,41.51775 a 6.2,6.2 0 1 0 -12.4,0 6.2,6.2 0 1 0 12.4,0 z"
     style="fill:none;stroke:#000000;stroke-width:0.26458332"
     id="path235" />
  <path
     inkscape:connector-curvature="0"
     d="m 260.09052,41.51775 a 6.2000006,6.2000006 0 1 0 -12.4,0 6.2000006,6.2000006 0 1 0 12.4,0 z"
     style="fill:none;stroke:#000000;stroke-width:0.26458332"
     id="path237" />
  <path
     inkscape:connector-curvature="0"
     d="m 305.09052,41.51775 a 6.200001,6.200001 0 1 0 -12.4,0 6.200001,6.200001 0 1 0 12.4,0 z"
     style="fill:none;stroke:#000000;stroke-width:0.26458332"
     id="path239" />
  <path
     inkscape:connector-curvature="0"
     d="m 320.09052,41.51775 a 6.2,6.2 0 1 0 -12.4,0 6.2,6.2 0 1 0 12.4,0 z"
     style="fill:none;stroke:#000000;stroke-width:0.26458332"
     id="path241" />
</svg>
