<?xml version="1.0" encoding="UTF-8" standalone="no"?>
<svg
   xmlns:dc="http://purl.org/dc/elements/1.1/"
   xmlns:cc="http://creativecommons.org/ns#"
   xmlns:rdf="http://www.w3.org/1999/02/22-rdf-syntax-ns#"
   xmlns:svg="http://www.w3.org/2000/svg"
   xmlns="http://www.w3.org/2000/svg"
   version="1.1"
   id="svg8"
   x="0px"
   y="0px"
   viewBox="0 0 743.7 357.4"
   style="enable-background:new 0 0 743.7 357.4;"
   xml:space="preserve"><metadata
   id="metadata26"><rdf:RDF><cc:Work
       rdf:about=""><dc:format>image/svg+xml</dc:format><dc:type
         rdf:resource="http://purl.org/dc/dcmitype/StillImage" /><dc:title></dc:title></cc:Work></rdf:RDF></metadata><defs
   id="defs24" />
<style
   type="text/css"
   id="style2">
	.st0{fill:none;stroke:#FF0000;stroke-width:2.834646e-03;stroke-linecap:round;stroke-miterlimit:11.3386;}
	.st1{fill:none;stroke:#FF0000;stroke-width:2.834646e-03;stroke-miterlimit:11.3386;}
	.st2{fill:none;stroke:#0000FF;stroke-width:2.834646e-03;stroke-miterlimit:11.3386;}
	.st3{fill:none;}
</style>
<path
   id="front_outsideCutPath"
   vector-effect="non-scaling-stroke"
   class="st0"
   d="m 12.885183,181.23292 v 9.36693 H 4.3851832 v 15.2 H 27.585183 v -8.5 h 20.7 v 8.5 h 20.7 v -8.5 h 20.7 v 8.5 h 20.699997 v -8.5 h 20.7 v 8.5 h 20.7 v -8.5 h 20.7 v 8.5 h 20.7 v -8.5 h 20.7 v 8.5 h 20.7 v -8.5 h 20.7 v 8.5 h 20.7 v -8.5 h 20.7 v 8.5 h 20.7 v -8.5 h 21 v 8.5 h 23.2 v -15.2 h -8.5 v -9.36693 z" />
<path
   id="back_outsideCutPath"
   vector-effect="non-scaling-stroke"
   class="st0"
   d="m 14.082081,213.24237 v 9.46692 h -8.5 v 6.6 h 11.6 v 8.5 h 11.6 v -8.5 h 62.2 v 8.5 h 20.699999 v -8.5 h 62.1 v 8.5 h 20.7 v -8.5 h 62.2 v 8.5 h 20.7 v -8.5 h 62.2 v 8.5 h 11.6 v -8.5 h 11.6 v -6.6 h -8.5 v -9.46692 z" />
<path
   id="right_outsideCutPath"
   vector-effect="non-scaling-stroke"
   class="st0"
   d="M 14.384922,294.56279 H 5.5305985 l -1.4e-6,14.26682 h 8.4999999 v 4.47242 h 10.2 v 5.75993 h 4.5 v -5.69217 h 20.7 v 5.75993 h 20.7 v -5.75993 H 132.3306 v 5.75993 h 20.7 v -5.75993 h 62.2 v 5.75993 h 15.3 v -5.75993 h 5.5 20.7 v 5.75993 h 20.7 v -5.75993 h 20.7 v 5.75993 h 20.7 v -5.75993 h 20.7 v 5.75993 h 14.7 v -10.30011 h 8.5 v -14.26682 h -8.5 z" />
<path
   id="bottom_outsideCutPath"
   vector-effect="non-scaling-stroke"
   class="st0"
   d="m 381.8,8.6 v 14.7 h -8.5 V 44 h 8.5 v 20.7 h -8.5 v 20.7 h 8.5 v 20.7 h -8.5 v 8.50001 h 23.25 v 8.5 H 381.8 V 147.6 h -8.5 v 20.7 h 8.5 V 189 h -8.5 v 20.7 h 8.5 v 20.7 h -8.5 v 20.7 h 8.5 V 272 h -8.5 v 20.7 h 8.5 v 20.7 h -8.5 v 20.7 h 8.5 v 14.7 h 14.7 v 8.5 h 20.7 v -8.5 h 20.7 v 8.5 h 20.7 v -8.5 h 20.7 v 8.5 H 500 v -8.5 h 20.7 v 8.5 h 20.7 v -8.5 h 20.7 v 8.5 H 583 v -8.5 h 20.7 v 8.5 h 20.7 v -8.5 h 20.7 v 8.5 h 20.7 v -8.5 h 20.7 v 8.5 h 20.7 v -8.5 H 722 v -14.7 h 8.5 V 313.4 H 722 v -20.7 h 8.5 V 272 H 722 v -20.7 h 8.5 V 230.6 H 722 v -20.7 h 8.5 V 189.2 H 722 v -20.7 h 8.5 V 147.8 H 722 v -24.59999 l -14.75,-0.1 v -8.5 H 730.5 V 106.3 H 722 V 85.5 h 8.5 V 64.8 H 722 V 44 h 8.5 V 23.3 H 722 V 8.6 H 707.3 V 0.1 H 686.6 V 8.6 H 665.9 V 0.1 H 645.2 V 8.6 H 624.5 V 0.1 H 603.8 V 8.6 H 583 V 0.1 H 562.3 V 8.6 H 541.6 V 0.1 H 520.9 V 8.6 H 500.2 V 0.1 H 479.5 V 8.6 H 458.8 V 0.1 H 438.1 V 8.6 H 417.4 V 0.1 h -20.7 v 8.5 z" />
<path
   id="back_outsideCutPath-0"
   vector-effect="non-scaling-stroke"
   class="st1"
   d="m 0.88004121,243.40064 v 17 H 14.980041 v -8.5 h 11.6 20.7 v 8.5 h 20.7 v -8.5 h 62.199999 v 8.5 h 20.7 v -8.5 h 62.2 v 8.5 h 20.7 v -8.5 h 62.2 v 8.5 h 20.7 v -8.5 h 20.7 11.6 v 8.5 h 14.1 v -17.6 z" />
<path
   id="back_outsideCutPath-0-7"
   vector-effect="non-scaling-stroke"
   class="st1"
   d="m 0.53495606,269.48097 v 17 H 26.234956 v -8.5 h 20.7 v 8.5 h 20.7 v -8.5 h 20.8 v 8.5 h 20.700004 v -8.5 h 20.7 v 8.5 h 20.7 v -8.5 h 20.7 v 8.5 h 20.7 v -8.5 h 20.7 v 8.5 h 20.8 v -8.5 h 20.7 v 8.5 h 20.7 v -8.5 h 20.7 v 8.5 h 20.7 v -8.5 h 20.7 v 8.5 h 25.7 v -17.6 z" />
<path
   id="right_outsideCutPath-2-1"
   vector-effect="non-scaling-stroke"
   class="st1"
   d="m 355.95293,169.27349 v -17.6 h -10.1 v 8.5 h -4.5 -62.2 v -8.5 h -20.7 v 8.5 h -62.2 v -8.5 h -20.7 v 8.5 h -36 v -8.5 h -9.29998 c 0,8.8 0,0 0,8.8 v 8.79999 z" />
<path
   id="right_outsideCutPath-4"
   vector-effect="non-scaling-stroke"
   class="st0"
   d="M 13.9,325.63309 H 5.4 V 335.1 h 8.5 v 6.6 h 10.2 v 8.5 h 4.5 v -8.5 h 20.7 v 8.5 H 70 v -8.5 h 62.2 v 8.5 h 20.7 v -8.5 H 215 v 8.5 h 15.3 v -8.5 h 5.5 20.7 v 8.5 h 20.7 v -8.5 h 20.7 v 8.5 h 20.7 v -8.5 h 20.7 v 8.5 H 354 V 335 h 8.5 v -9.36691 H 354 c -340.1,0.1 -141.61233,0 -340.1,0 z" />

<rect
   id="rect978"
   x="417.25"
   y="114.60001"
   class="st2"
   width="20.700001"
   height="8.5"
   style="stroke-width:0.37795276;stroke-miterlimit:11.33860016;stroke-dasharray:none" />
<rect
   id="rect978-7"
   x="458.75"
   y="114.60001"
   class="st2"
   width="20.700001"
   height="8.5"
   style="stroke-width:0.37795276;stroke-miterlimit:11.33860016;stroke-dasharray:none" />
<rect
   id="rect978-7-8"
   x="500.15002"
   y="114.60001"
   class="st2"
   width="20.700001"
   height="8.5"
   style="stroke-width:0.37795276;stroke-miterlimit:11.33860016;stroke-dasharray:none" />
<rect
   id="rect978-7-0"
   x="541.54999"
   y="114.60001"
   class="st2"
   width="20.700001"
   height="8.5"
   style="stroke-width:0.37795276;stroke-miterlimit:11.33860016;stroke-dasharray:none" />
<rect
   id="rect978-7-00"
   x="583.04999"
   y="114.60001"
   class="st2"
   width="20.700001"
   height="8.5"
   style="stroke-width:0.37795276;stroke-miterlimit:11.33860016;stroke-dasharray:none" />
<rect
   id="rect978-7-3"
   x="624.45001"
   y="114.60001"
   class="st2"
   width="20.700001"
   height="8.5"
   style="stroke-width:0.37795276;stroke-miterlimit:11.33860016;stroke-dasharray:none" />
<rect
   id="rect978-7-6"
   x="665.84998"
   y="114.60001"
   class="st2"
   width="20.700001"
   height="8.5"
   style="stroke-width:0.37795276;stroke-miterlimit:11.33860016;stroke-dasharray:none" />
<rect
   id="rect978-7-06"
   x="723"
   y="100"
   class="st3"
   width="20.7"
   height="8.5" />
<path
   id="right_outsideCutPath-2-1-6"
   vector-effect="non-scaling-stroke"
   class="st1"
   d="m 355.91656,142.03116 v -17.60001 h -10.10001 v 8.50001 h -4.5 -62.19999 v -8.50001 h -20.7 v 8.50001 h -62.2 v -8.50001 h -20.70001 v 8.50001 h -36 v -8.50001 h -9.29999 c 0,8.80001 0,0 0,8.80001 v 8.79999 z"
   style="fill:none;stroke:#ff0000;stroke-width:1;stroke-miterlimit:11.3386" /></svg>
